<svg xmlns="http://www.w3.org/2000/svg" width="54.11" height="50.398" viewBox="0 0 54.11 50.398"><defs><style>.a{fill:#0d7dd9;}</style></defs><g transform="translate(0 -11.868)"><path class="a" d="M101.842,121.96a4.308,4.308,0,0,1-.912-.959c-.014-.025-.029-.051-.05-.086-.664-1.062-.913-3.713-1.062-5.3-.022-.238-.044-.465-.065-.678,0-.022,0-.043-.009-.075a19.461,19.461,0,0,0-3.286-8.663,10.523,10.523,0,0,0-5.366-3.951,3.16,3.16,0,0,0-6.257,0,10.518,10.518,0,0,0-5.366,3.951,19.456,19.456,0,0,0-3.286,8.663l0,.019c0,.021,0,.04-.006.055-.022.214-.043.441-.065.679-.149,1.584-.4,4.235-1.068,5.307l-.04.069a4.3,4.3,0,0,1-.916.967c-.933.818-2.876,2.52-1.275,5.491a1.77,1.77,0,0,0,1.561.932h27.185a1.771,1.771,0,0,0,1.561-.932C104.717,124.481,102.775,122.779,101.842,121.96Z" transform="translate(-60.909 -73.96)"/><path class="a" d="M154.027,302.979h-6.289a.868.868,0,0,0-.666.31,1.369,1.369,0,0,0-.171,1.156l0,.024a4.092,4.092,0,0,0,8.083-.136l.006-.033a1.128,1.128,0,0,0-.186-.973A.985.985,0,0,0,154.027,302.979Z" transform="translate(-123.884 -245.587)"/><path class="a" d="M15.893,13.836A2.345,2.345,0,0,0,13.2,11.9a15.827,15.827,0,0,0-9.192,5.034,15.623,15.623,0,0,0-4,9.581A2.346,2.346,0,0,0,2.2,29q.072,0,.144,0a2.346,2.346,0,0,0,2.339-2.2,11.083,11.083,0,0,1,9.27-10.269A2.346,2.346,0,0,0,15.893,13.836Z" transform="translate(0 0)"/><path class="a" d="M57.847,73.631a5.9,5.9,0,0,1,4.937-5.469,2.346,2.346,0,0,0-.758-4.63,10.593,10.593,0,0,0-8.862,9.815,2.346,2.346,0,0,0,2.2,2.483c.048,0,.1,0,.144,0A2.346,2.346,0,0,0,57.847,73.631Z" transform="translate(-44.846 -43.559)"/><path class="a" d="M260.1,26.515a15.623,15.623,0,0,0-4-9.582,15.826,15.826,0,0,0-9.192-5.034,2.346,2.346,0,1,0-.758,4.63,11.082,11.082,0,0,1,9.27,10.268,2.346,2.346,0,0,0,2.339,2.2c.048,0,.1,0,.144,0A2.346,2.346,0,0,0,260.1,26.515Z" transform="translate(-205.997)"/><path class="a" d="M227.629,66.914a10.629,10.629,0,0,0-6.174-3.381,2.346,2.346,0,0,0-.758,4.63,5.9,5.9,0,0,1,4.937,5.468,2.346,2.346,0,0,0,2.339,2.2c.048,0,.1,0,.143,0a2.345,2.345,0,0,0,2.2-2.483A10.633,10.633,0,0,0,227.629,66.914Z" transform="translate(-184.525 -43.56)"/></g></svg>