<svg xmlns="http://www.w3.org/2000/svg" width="512.121" height="491.126" viewBox="0 0 512.121 491.126"><defs><style>.a{fill:#fade2a;}.b{fill:#ebebeb;}.c{fill:rgba(255,255,255,0);}.d{fill:#e0374f;}.ax,.e,.g,.h,.j,.o,.q{fill:#fff;}.ay,.br,.e,.r{opacity:0.4;}.f{fill:#ff8193;}.g{opacity:0.26;}.h{opacity:0.17;}.i{opacity:0.58;}.k{fill:#f5f5f5;}.l{fill:#fffbe5;}.au,.l,.n{opacity:0.2;}.m{fill:#fab005;opacity:0.3;}.ao,.aw,.ay,.n,.p{fill:#2c8eff;}.o{opacity:0.7;}.p{opacity:0.21;}.q{opacity:0.5;}.s,.t{fill:#ec9936;}.ab,.an,.bb,.bh,.t,.w{opacity:0.55;}.aa,.ab,.al,.bh,.bl,.bm,.t,.w{mix-blend-mode:multiply;}.aa,.ab,.al,.am,.an,.bh,.bj,.bl,.bm,.t,.w{isolation:isolate;}.u{fill:#6f9e23;}.v{fill:#9fcc29;}.w{fill:#b87936;}.x{fill:#ffcf08;}.y{fill:#efa708;}.z{fill:#f73333;}.aa,.ab{fill:#d63333;}.ac{fill:#ea3333;}.ad{fill:#c91d1d;}.ae{fill:#c92222;}.af{fill:#ff7e70;}.ag{fill:#db4c51;}.ah{fill:#f27162;}.ai{fill:#ea8d1e;}.aj{fill:#f89f16;}.ak,.am,.an{fill:#f9c22d;}.al{fill:#e39700;}.al,.am,.bj,.bm{opacity:0.32;}.am,.an,.bj{mix-blend-mode:screen;}.ao{opacity:0.37;}.ap{fill:#407bff;}.aq{fill:rgba(44,75,255,0);}.ar{fill:#775298;}.as{fill:#ffe5d2;}.at,.br,.bs{fill:#22343d;}.av{fill:#2c4bff;}.ax{opacity:0.8;}.az{fill:#f89945;}.ba{fill:#d77124;}.bb{fill:#cd4200;}.bc{fill:#be5b2a;}.bd{fill:#ae4d25;}.be{fill:#953e25;}.bf{fill:#7bb027;}.bg{fill:#e72124;}.bh{fill:#c42124;}.bi{fill:#e8761f;}.bj{fill:#fde5c1;}.bk{fill:#fbd198;}.bl{fill:#d48745;opacity:0.35;}.bm{fill:#ba773d;}.bn{fill:#263238;}.bo{fill:#ff5652;}.bp{fill:#ff7b5b;}.bq{fill:#f03e3d;}.bs{opacity:0.49;}.bt{fill:#ed847e;}.bu{fill:#365463;}</style></defs><g transform="translate(-789 -140.193)"><g transform="translate(789 151)"><path class="a" d="M-162.85,1.147C-298.018,14.891-409.9,113.925-458.918,240.16s135.546,233.768,268.483,239.929S45.121,368.139,45.121,233.609-27.682-12.6-162.85,1.147Z" transform="translate(467 0)"/></g><g transform="translate(855.207 178.445)"><g transform="translate(0 0)"><g transform="translate(13.331 333.199)"><g transform="translate(0 0)"><rect class="b" width="389.878" height="0.264"/><rect class="b" width="14.728" height="0.264" transform="translate(324.986 16.998)"/><rect class="b" width="22.982" height="0.264" transform="translate(228.511 15.156)"/><rect class="b" width="36.735" height="0.264" transform="translate(287.47 7.191)"/><rect class="b" width="8.555" height="0.264" transform="translate(40.905 8.966)"/><rect class="b" width="30.064" height="0.264" transform="translate(56.402 8.966)"/><rect class="b" width="42.222" height="0.264" transform="translate(133.338 13.425)"/></g></g><g transform="translate(0 0)"><g transform="translate(0 159.496)"><path class="c" d="M28.559,0A28.559,28.559,0,1,1,0,28.559,28.559,28.559,0,0,1,28.559,0Z" transform="translate(92.576 160.6) rotate(-67.5)"/><circle class="d" cx="28.559" cy="28.559" r="28.559" transform="translate(273.325 145.144) rotate(-45)"/><path class="d" d="M85.869,236.64,56.111,297.355V354.39H171.292V236.64Z" transform="translate(-52.593 -216.861)"/><path class="e" d="M89.842,246.93,70.71,285.967v13.066h47.147v-52.1Z" transform="translate(-51.775 -216.285)"/><rect class="e" width="20.055" height="117.751" transform="translate(81.129 19.778)"/><path class="d" d="M0,0H273.842V137.529H0Z" transform="translate(363.094 137.529) rotate(180)"/><path class="f" d="M0,0H359.576V9.544H0Z" transform="translate(363.094 147.073) rotate(180)"/><circle class="d" cx="28.559" cy="28.559" r="28.559" transform="translate(0 160.6) rotate(-67.5)"/><path class="g" d="M89.089,342.174A14.156,14.156,0,1,1,74.933,356.33a14.171,14.171,0,0,1,14.156-14.156m0-4.224a18.38,18.38,0,1,0,18.379,18.38,18.381,18.381,0,0,0-18.379-18.38Z" transform="translate(-51.775 -211.185)"/><path class="d" d="M28.559,0A28.559,28.559,0,1,1,0,28.559,28.559,28.559,0,0,1,28.559,0Z" transform="translate(180.749 145.144) rotate(-45)"/><path class="e" d="M263.16,342.174A14.156,14.156,0,1,1,249,356.33a14.171,14.171,0,0,1,14.156-14.156m0-4.224a18.38,18.38,0,1,0,18.379,18.38,18.381,18.381,0,0,0-18.379-18.38Z" transform="translate(-42.022 -211.185)"/><path class="h" d="M0,0H93.546V124.581H0Z" transform="translate(265.176 9.193)"/><g class="i" transform="translate(285.155 96.52)"><rect class="e" width="26.794" height="37.254"/><rect class="j" width="6.873" height="12.756" transform="translate(9.961)"/><rect class="e" width="26.794" height="28.94" transform="translate(30.324 8.314)"/><rect class="j" width="3.529" height="28.94" transform="translate(30.324 37.254) rotate(180)"/><rect class="k" width="6.873" height="12.756" transform="translate(40.285 8.314)"/></g><rect class="d" width="54.301" height="124.581" transform="translate(413.023 133.773) rotate(180)"/><rect class="l" width="19.979" height="124.581" transform="translate(285.155 133.773) rotate(180)"/><g transform="translate(148.814 19.778)"><circle class="e" cx="42.915" cy="42.915" r="42.915"/><g transform="translate(18.584 18.584)"><rect class="d" width="13.815" height="48.661" transform="translate(17.423)"/><rect class="d" width="13.815" height="48.661" transform="translate(48.661 17.423) rotate(90)"/></g></g></g><g transform="translate(166.996 -38.252)"><circle class="k" cx="28.251" cy="28.251" r="28.251" transform="translate(32.409 55.773) rotate(-80.783)"/><circle class="k" cx="31.017" cy="31.017" r="31.017" transform="translate(44.726 69.099) rotate(-80.783)"/><circle class="k" cx="25.009" cy="25.009" r="25.009" transform="translate(5.623 48.237) rotate(-45)"/><circle class="k" cx="13.91" cy="13.91" r="13.91" transform="translate(0 37.786)"/><circle class="k" cx="15.789" cy="15.789" r="15.789" transform="translate(85.394 51.696) rotate(-45)"/></g><g transform="translate(311.083 2.368)"><circle class="k" cx="28.132" cy="28.132" r="28.132" transform="translate(18.5)"/><circle class="k" cx="21.378" cy="21.378" r="21.378" transform="translate(0 12.548)"/><circle class="k" cx="24.903" cy="24.903" r="24.903" transform="translate(44.877 13.615)"/><circle class="k" cx="15.134" cy="15.134" r="15.134" transform="translate(70.682 21.121) rotate(-13.282)"/></g><g transform="translate(9.137 3.364)"><circle class="k" cx="24.485" cy="24.485" r="24.485" transform="translate(30.923 6.229)"/><circle class="k" cx="18.606" cy="18.606" r="18.606" transform="translate(55.005 11.837) rotate(-13.283)"/><circle class="k" cx="21.674" cy="21.674" r="21.674" transform="translate(13.587)"/><circle class="k" cx="13.172" cy="13.172" r="13.172" transform="translate(0 27.021) rotate(-45)"/></g></g></g><g transform="translate(11.899 356.977)"><ellipse class="m" cx="181.286" cy="11.958" rx="181.286" ry="11.958" transform="translate(0)"/></g><g transform="translate(22.527 266.521)"><g transform="translate(0 42.855)"><g transform="translate(0 0)"><rect class="j" width="70.394" height="56.04"/><path class="n" d="M0,0H70.394V56.04H0Z"/></g><path class="n" d="M0,0H24.912V56.04H0Z" transform="translate(45.482 0)"/><path class="j" d="M135.572,386.937c0,5.876-2.43,10.639-5.427,10.639s-5.427-4.764-5.427-10.639,2.43-10.639,5.427-10.639S135.572,381.061,135.572,386.937Z" transform="translate(-71.276 -358.916)"/><rect class="o" width="8.89" height="21.19" transform="translate(27.186 56.04) rotate(180)"/><rect class="o" width="8.89" height="9.938" transform="translate(27.186 9.938) rotate(180)"/></g><g transform="translate(56.439 42.855)"><rect class="j" width="70.394" height="56.04"/><path class="n" d="M0,0H70.394V56.04H0Z"/><path class="p" d="M0,0H24.912V56.04H0Z" transform="translate(45.482)"/><path class="q" d="M189.017,386.937c0,5.876-2.43,10.639-5.428,10.639s-5.427-4.764-5.427-10.639,2.43-10.639,5.427-10.639S189.017,381.061,189.017,386.937Z" transform="translate(-124.72 -358.916)"/><rect class="o" width="8.89" height="21.19" transform="translate(18.296)"/><rect class="o" width="8.89" height="9.938" transform="translate(18.296 46.102)"/><g class="r" transform="translate(-153.895 -231.317)"><path class="s" d="M227.568,277.832l-3.672,2.606.308.538,6.566-3.314-.15-.506Z" transform="translate(-13.691 -18.897)"/><path class="t" d="M227.568,277.833l-3.672,2.606.307.538,2.855-1.441a.581.581,0,0,1,.085-.536,1.65,1.65,0,0,1,.775-.459,1.155,1.155,0,0,1,.817.149l2.035-1.027-.15-.506Z" transform="translate(-13.69 -18.898)"/><path class="u" d="M227.553,276.083a8.19,8.19,0,0,0-1.735.736,4.353,4.353,0,0,0-1.208.752c-.569.66-1.248.773-1.876,1.266a1.162,1.162,0,0,1-.5.276.386.386,0,0,1-.452-.261c-.033-.188.125-.35.272-.472.36-.3.736-.576,1.123-.836a15.4,15.4,0,0,1,5.669-2.333.878.878,0,0,1-.5.621A3.928,3.928,0,0,1,227.553,276.083Z" transform="translate(-11.773 -17.141)"/><path class="v" d="M219.082,274.6l-1.081.41a.735.735,0,0,1-.354.07.253.253,0,0,1-.231-.238c.009-.13.151-.211.28-.228a2.15,2.15,0,0,0,.389-.037,1.142,1.142,0,0,0,.351-.251,2.532,2.532,0,0,1,.41-.267c.2-.113.413-.218.621-.324.593-.3.978-.729,1.57-1.029.519-.262,1.245-.395,1.764-.657a12.056,12.056,0,0,0,1.986-1.169c.111-.086.249-.182.38-.13a.274.274,0,0,1,.089.387.793.793,0,0,1-.355.27l-.267.132a1.974,1.974,0,0,0-.382.226c-.186.151-.317.371-.529.482a1.722,1.722,0,0,1-.717.107,4.981,4.981,0,0,0-1.96.686,2.432,2.432,0,0,0-.735.5c-.174.2-.281.447-.465.633A2.073,2.073,0,0,1,219.082,274.6Z" transform="translate(-7.83 -13.092)"/><path class="w" d="M225.235,286.82a.885.885,0,0,1,.274-.148c.248-.109.486-.24.73-.357a12.489,12.489,0,0,0-1.341.48c-.593.3-.978.729-1.57,1.029-.208.105-.417.211-.621.324a2.531,2.531,0,0,0-.41.267,1.141,1.141,0,0,1-.351.251.894.894,0,0,1-.26.029c-.031.287.43.027.547-.037.2-.111.41-.206.622-.3a16.5,16.5,0,0,0,1.431-.835,2.97,2.97,0,0,1,.623-.393l.263-.135C225.194,286.934,225.188,286.861,225.235,286.82Z" transform="translate(-11.691 -27.18)"/><path class="w" d="M274.927,275.394c.188-.1.371-.217.556-.326.031-.018.163-.073.251-.129a.347.347,0,0,1-.095-.076,14.575,14.575,0,0,1-1.608.9A6.8,6.8,0,0,0,274.927,275.394Z" transform="translate(-59.029 -16.823)"/><g transform="translate(209.771 259.22)"><path class="x" d="M219.35,289.26l.209.383,3.5-1.907-.2-.3-.271-.229-2.414,1.141Z" transform="translate(-219.35 -287.21)"/><path class="y" d="M219.35,291.421l.209.383,3.5-1.907-.2-.3Z" transform="translate(-219.35 -289.371)"/></g><g transform="translate(212.975 257.661)"><path class="z" d="M252.836,272.572l.24.376,3.466-1.665-.249-.318a4.215,4.215,0,0,0-2.135.2C253.3,271.549,252.843,272.083,252.836,272.572Z" transform="translate(-252.836 -270.908)"/><path class="aa" d="M258.581,270.924a3.356,3.356,0,0,0-1.273.254,2.959,2.959,0,0,0-.99.676Z" transform="translate(-255.985 -270.922)"/><path class="ab" d="M254.148,280.725a.5.5,0,0,1,0-.3l-1.271.522a.872.872,0,0,0-.037.231l.24.376,1.214-.583A.749.749,0,0,1,254.148,280.725Z" transform="translate(-252.836 -279.517)"/><path class="ac" d="M252.836,272.572l3.458-1.607a4.215,4.215,0,0,0-2.135.2C253.3,271.549,252.843,272.083,252.836,272.572Z" transform="translate(-252.836 -270.908)"/><path class="ad" d="M253.613,271.979c.1-.019.434,0,.467-.014s-.285-.146-.285-.146a1.53,1.53,0,0,1,.8-.365s-.1.2.086.2.157-.257.142-.287a1.235,1.235,0,0,1,.739-.059l.736-.342a4.215,4.215,0,0,0-2.135.2c-.858.385-1.316.919-1.323,1.408l.619-.287C253.486,272.174,253.546,271.992,253.613,271.979Z" transform="translate(-252.837 -270.908)"/><path class="ae" d="M253.968,271.527a2.763,2.763,0,0,1,1.833-.333l.493-.229a4.215,4.215,0,0,0-2.135.2c-.858.385-1.316.919-1.323,1.408l.29-.135C253.172,272,253.558,271.735,253.968,271.527Z" transform="translate(-252.837 -270.908)"/><path class="af" d="M261.157,282.852c0,.023-.023.047-.061.054s-.072-.006-.076-.029.023-.046.06-.053S261.152,282.829,261.157,282.852Z" transform="translate(-260.237 -281.682)"/><path class="af" d="M265.035,279.591c.008.025-.02.052-.061.06s-.079-.005-.086-.03.02-.051.061-.059S265.028,279.567,265.035,279.591Z" transform="translate(-263.734 -278.732)"/><path class="af" d="M267.891,278.995c.01.028-.018.059-.065.068s-.09-.007-.1-.034.019-.057.064-.066S267.88,278.967,267.891,278.995Z" transform="translate(-266.3 -278.189)"/><path class="af" d="M275.276,275.736c.011.02-.013.044-.054.053s-.083,0-.093-.021.013-.043.053-.052S275.264,275.716,275.276,275.736Z" transform="translate(-272.993 -275.253)"/></g><g transform="translate(209.913 258.767)"><path class="z" d="M220.837,284.266l.277.4,3.352-1.8-.233-.324a3.726,3.726,0,0,0-2.062.185C221.29,283.142,220.82,283.731,220.837,284.266Z" transform="translate(-220.836 -282.473)"/><path class="ab" d="M221.866,293.515c-.014-.017-.028-.035-.041-.053l-.928.381a.98.98,0,0,0-.06.361l.277.4,1.263-.677A.82.82,0,0,1,221.866,293.515Z" transform="translate(-220.836 -292.411)"/><path class="ac" d="M220.837,284.266l3.4-1.724a3.726,3.726,0,0,0-2.062.185C221.29,283.142,220.82,283.731,220.837,284.266Z" transform="translate(-220.836 -282.473)"/><path class="ad" d="M221.638,283.6c.1-.022.45-.01.482-.022s-.3-.152-.3-.152a1.478,1.478,0,0,1,.8-.392s-.1.211.092.209.146-.27.131-.3a1.108,1.108,0,0,1,.713-.059l.679-.344a3.726,3.726,0,0,0-2.062.185c-.882.415-1.351,1-1.335,1.539l.649-.329C221.513,283.817,221.568,283.62,221.638,283.6Z" transform="translate(-220.836 -282.473)"/><path class="ae" d="M221.989,283.116a2.528,2.528,0,0,1,1.793-.345l.452-.229a3.726,3.726,0,0,0-2.062.185c-.882.415-1.351,1-1.335,1.539l.307-.156C221.171,283.63,221.57,283.343,221.989,283.116Z" transform="translate(-220.836 -282.473)"/><path class="af" d="M229.484,295.1c.006.024-.022.051-.061.059s-.075,0-.08-.029.022-.05.061-.058S229.478,295.074,229.484,295.1Z" transform="translate(-228.528 -293.862)"/><path class="af" d="M233.371,291.562c.009.026-.018.055-.06.065s-.082,0-.089-.031.019-.054.06-.064S233.362,291.536,233.371,291.562Z" transform="translate(-232.035 -290.663)"/><path class="af" d="M236.263,290.906c.012.03-.016.062-.062.072a.087.087,0,0,1-.1-.036c-.01-.029.017-.061.062-.071A.088.088,0,0,1,236.263,290.906Z" transform="translate(-234.636 -290.066)"/><path class="af" d="M243.5,287.464c.012.021-.011.046-.051.055s-.081,0-.092-.022.012-.045.051-.054S243.485,287.443,243.5,287.464Z" transform="translate(-241.197 -286.964)"/></g><path class="ag" d="M249.338,265.535a12.562,12.562,0,0,0-2.095.928c0,.153.533.463.987.368a13.7,13.7,0,0,0,3.15-1.539l-.121-.231A3.468,3.468,0,0,0,249.338,265.535Z" transform="translate(-34.804 -7.953)"/><path class="ah" d="M250.8,265.86a13.292,13.292,0,0,1-1.437.681,3.568,3.568,0,0,1-1.392.44,1.277,1.277,0,0,1-.556-.114,1.08,1.08,0,0,0,.971.318,13.7,13.7,0,0,0,3.15-1.538l-.105-.2C251.331,265.643,250.985,265.754,250.8,265.86Z" transform="translate(-34.957 -8.307)"/><path class="v" d="M247.3,259.854a2.348,2.348,0,0,0,.58-.037c.288-.119.365-.528.653-.648.157-.065.342-.027.5-.091s.257-.217.392-.321a1.2,1.2,0,0,1,.707-.195,3.379,3.379,0,0,0,.742-.049.355.355,0,0,0,.219-.129.153.153,0,0,0-.05-.222.277.277,0,0,0-.193.035c-.062.025-.147.033-.185-.022-.051-.073.032-.167.035-.255a.193.193,0,0,0-.18-.175.518.518,0,0,0-.265.064,9.865,9.865,0,0,1-1.691.784c-.391.094-.8.083-1.189.187a2.1,2.1,0,0,0-1.194.859.43.43,0,0,0-.078.173.323.323,0,0,0,.287.328.791.791,0,0,0,.463-.109A1.512,1.512,0,0,1,247.3,259.854Z" transform="translate(-33.768 -1.343)"/><path class="v" d="M212.467,275.045c.108-.029.224.016.334,0a.334.334,0,0,0,.253-.331.456.456,0,0,0-.228-.369.733.733,0,0,0-.437-.088,1.739,1.739,0,0,0-.96.48,6.626,6.626,0,0,1-.835.7,2.678,2.678,0,0,0-.741.488,3.024,3.024,0,0,0-.232.386.654.654,0,0,1-.321.3,1.75,1.75,0,0,1-.285.046.314.314,0,0,0-.238.145.239.239,0,0,0,.11.3.379.379,0,0,0,.339-.005.971.971,0,0,0,.274-.217,1.625,1.625,0,0,1,.259-.237c.276-.183.671-.162.9-.4.16-.17.2-.441.4-.571.285-.191.721.032.992-.179C212.208,275.358,212.266,275.1,212.467,275.045Z" transform="translate(0 -16.269)"/><path class="u" d="M238.231,281.16c-.407.1-.613.5-.986.64a.852.852,0,0,0,.562-.095c.163-.128.222-.388.422-.441.108-.029.224.016.334,0a.3.3,0,0,0,.192-.134C238.6,281.159,238.415,281.116,238.231,281.16Z" transform="translate(-25.762 -22.489)"/><g transform="translate(209.401 256.546)"><path class="w" d="M215.776,263.07c.359-.122.714-.258,1.067-.4a14.1,14.1,0,0,0,2.2-1.139c.681-.413,1.474-.585,2.146-1.019a9.738,9.738,0,0,1,.907-.563c.175-.088.352-.172.526-.263l.084-.04a.323.323,0,0,1-.037-.029,1.015,1.015,0,0,1-.26-.366,7.455,7.455,0,0,1-1.525.7c-.391.093-.8.083-1.189.187a2.1,2.1,0,0,0-.956.564.844.844,0,0,0-.259-.018,1.739,1.739,0,0,0-.96.48,6.62,6.62,0,0,1-.835.7,2.675,2.675,0,0,0-.741.488,3.027,3.027,0,0,0-.232.386.783.783,0,0,1-.22.251C215.569,263.068,215.518,263.158,215.776,263.07Z" transform="translate(-215.489 -259.255)"/></g><g transform="translate(208.896 256.259)"><path class="u" d="M219.016,275.947c.211-.25.368-.456.716-.466a.956.956,0,0,0,.723-.253,2.29,2.29,0,0,1,.42-.348c.221-.131.639,0,.844-.151,0-.006,0-.013,0-.019a.456.456,0,0,0-.228-.369.733.733,0,0,0-.437-.088,1.739,1.739,0,0,0-.96.48,6.627,6.627,0,0,1-.835.7,2.677,2.677,0,0,0-.741.488,1.8,1.8,0,0,0-.179.291A.931.931,0,0,0,219.016,275.947Z" transform="translate(-217.563 -272.528)"/><path class="ai" d="M214.022,256.516l-3.814,3.329.478.46a78.5,78.5,0,0,0,7.175-3.5l-.108-.542Z" transform="translate(-210.208 -256.259)"/><path class="t" d="M269.071,256.391a4.587,4.587,0,0,1,.235,1.116c.005.087.012.184.014.284a17.554,17.554,0,0,0,1.772-.99l-.108-.542Z" transform="translate(-263.439 -256.259)"/><path class="t" d="M213.3,268.806a1.286,1.286,0,0,1-.255-.929l-2.835,2.474.478.46s1.741-.761,3.547-1.612A1.087,1.087,0,0,1,213.3,268.806Z" transform="translate(-210.208 -266.765)"/><path class="aj" d="M214.022,256.516l-3.814,3.329.039-.009a21.825,21.825,0,0,0,4.151-1.787c1.317-.691,3.354-1.791,3.354-1.791Z" transform="translate(-210.208 -256.259)"/><path class="ak" d="M217.163,257.76l-3.456,3.017.036-.008a19.781,19.781,0,0,0,3.761-1.619c1.193-.626,3.039-1.622,3.039-1.622Z" transform="translate(-213.372 -257.406)"/><path class="al" d="M220.384,263.076l1.916-1.765a2.744,2.744,0,0,1,1.349-.823.331.331,0,0,1,.27.046c.071.062.064.206-.028.228a6.814,6.814,0,0,1,1.782-.38.168.168,0,0,1-.047.181.5.5,0,0,1-.173.1C223.707,261.345,220.384,263.076,220.384,263.076Z" transform="translate(-219.41 -259.988)"/><path class="am" d="M247.115,265.351c.027.039-.006.109-.074.157s-.146.055-.173.016.006-.109.075-.157S247.088,265.312,247.115,265.351Z" transform="translate(-243.351 -264.458)"/><path class="am" d="M264.7,262.325c.027.039-.006.109-.074.157s-.146.055-.173.016.006-.109.075-.157S264.67,262.287,264.7,262.325Z" transform="translate(-259.251 -261.722)"/><path class="am" d="M243.7,272.955c.027.039-.006.109-.075.157s-.146.055-.173.016.006-.109.075-.157S243.674,272.917,243.7,272.955Z" transform="translate(-240.264 -271.335)"/><path class="am" d="M229.915,279.6c.027.039-.006.109-.074.157s-.146.055-.173.016.006-.109.074-.157S229.887,279.563,229.915,279.6Z" transform="translate(-227.797 -277.346)"/><path class="am" d="M250.284,267.543c.027.039-.006.109-.074.157s-.146.055-.173.016.006-.109.074-.157S250.256,267.5,250.284,267.543Z" transform="translate(-246.217 -266.441)"/><path class="am" d="M253.1,262.044c.027.039-.006.109-.075.157s-.146.055-.173.016.006-.109.075-.157S253.075,262,253.1,262.044Z" transform="translate(-248.765 -261.468)"/><path class="am" d="M256.519,266.434c.022.042-.021.108-.095.146s-.152.036-.174-.007.02-.108.095-.146S256.5,266.392,256.519,266.434Z" transform="translate(-251.84 -265.43)"/><path class="am" d="M240.636,269.813c.022.042-.02.108-.095.146s-.152.036-.174-.007.02-.108.095-.146S240.614,269.771,240.636,269.813Z" transform="translate(-237.477 -268.486)"/><path class="am" d="M235.736,276.3c.022.042-.02.108-.095.146s-.152.035-.174-.007.02-.108.095-.146S235.714,276.262,235.736,276.3Z" transform="translate(-233.046 -274.356)"/><path class="an" d="M262.522,257.675c.374.129.748.255,1.107.42.6-.324,1.058-.569,1.058-.569Z" transform="translate(-257.517 -257.405)"/><path class="an" d="M234.215,269.9c-.274-.052-.551-.1-.826-.147l-.552.482c.161.022.316.035.419.051.341.053.684.1,1.027.139l.08.009.44-.228.274-.145C234.79,270.013,234.5,269.958,234.215,269.9Z" transform="translate(-230.672 -268.466)"/><path class="an" d="M214.913,280.49l-1.206,1.052.036-.008a13.359,13.359,0,0,0,2.067-.779C215.509,280.672,215.211,280.583,214.913,280.49Z" transform="translate(-213.372 -278.172)"/></g></g></g><g transform="translate(33.218)"><rect class="j" width="70.394" height="42.855"/><path class="n" d="M0,0H70.394V42.855H0Z"/><rect class="ao" width="24.912" height="42.855" transform="translate(45.482)"/><ellipse class="j" cx="5.427" cy="10.64" rx="5.427" ry="10.64" transform="translate(53.442 10.788)"/><g transform="translate(54.994 14.882)"><rect class="ap" width="2.042" height="13.091" transform="translate(2.854)"/><rect class="ap" width="3.449" height="7.751" transform="translate(7.751 4.821) rotate(90)"/></g><rect class="o" width="8.89" height="14.598" transform="translate(18.296)"/><rect class="o" width="8.89" height="9.938" transform="translate(18.296 32.917)"/></g></g><g transform="translate(87.803 25.035)"><g transform="translate(39.23 69.124)"><path class="aq" d="M185.045,156.04l3.761,6.27c1.295,2.1,2.584,4.2,3.912,6.269,2.644,4.144,5.377,8.207,8.252,12.06.713.978,1.457,1.886,2.18,2.841.365.47.747.907,1.119,1.363l.562.679.281.339c.045.054,0,0-.034-.026l-.1-.083-.187-.14c-.5-.328-.713-.291-.655-.24a1.45,1.45,0,0,0,.653.231,14.5,14.5,0,0,0,2.75.128,114.256,114.256,0,0,0,14.095-2.014l2.62,6.244a54.716,54.716,0,0,1-7.117,3.878,44.36,44.36,0,0,1-7.948,2.808,22.5,22.5,0,0,1-4.843.661,14.32,14.32,0,0,1-3.12-.261,10.129,10.129,0,0,1-4.089-1.823c-.185-.142-.365-.282-.547-.45l-.269-.249-.2-.2-.359-.365-.718-.734c-.474-.491-.967-.976-1.426-1.473-.9-1-1.855-1.983-2.7-3.015A143.288,143.288,0,0,1,181.3,176.11c-1.47-2.172-2.9-4.364-4.267-6.595-1.384-2.246-2.664-4.447-3.965-6.873Z" transform="translate(-173.072 -156.04)"/><path class="ap" d="M216.911,184.212l7.556-7.051,5.632,8.589s-5.092,6.2-11.154,3.385Z" transform="translate(-170.616 -154.857)"/><path class="ap" d="M233.469,175.9l1.06,4.691a2.078,2.078,0,0,1-.739,2.091l-4.092,3.23-5.632-8.589,6.539-2.869A2.08,2.08,0,0,1,233.469,175.9Z" transform="translate(-170.215 -155.018)"/></g><path class="ar" d="M204.882,406.793a.213.213,0,0,1,.025-.392c.434-.154,4.275-1.484,5.278-.731a.681.681,0,0,1,.272.612h0a1.194,1.194,0,0,1-.536.975c-1.1.734-3.612.032-5.013-.452Zm4.974-.826c-.642-.325-2.691.151-4.2.633,1.928.6,3.411.714,4.028.3a.778.778,0,0,0,.347-.646.255.255,0,0,0-.1-.244A.62.62,0,0,0,209.856,405.967Z" transform="translate(-132.067 -72.943)"/><path class="ar" d="M206.63,403.432a1.571,1.571,0,0,1,1.225-.211c.569.144.692.458.7.7.023,1.038-2.377,2.683-3.52,3.02a.189.189,0,0,1-.155-.023c-.023,0-.032-.017-.053-.031a.243.243,0,0,1-.06-.2C204.8,406.584,205.364,404.2,206.63,403.432Zm1.5.5c-.006-.035,0-.136-.172-.219a.85.85,0,0,0-.215-.079l-.088-.013a1.151,1.151,0,0,0-.812.171,5.1,5.1,0,0,0-1.556,2.593C206.483,405.875,208.141,404.549,208.134,403.933Z" transform="translate(-132.067 -73.07)"/><path class="as" d="M196.876,408.6l9-.141-.562-20.923-9,.141Z" transform="translate(-132.54 -73.946)"/><path class="at" d="M206.073,406.36l-9.834.154a.694.694,0,0,0-.7.628l-.856,8.044a1.469,1.469,0,0,0,1.479,1.584c3.541-.116,8.643-.4,13.1-.475,5.214-.081,4.706.133,10.82.037,3.7-.058,4.292-3.818,2.706-4.132-7.222-1.433-7.95-1.508-14.47-5.171A4.521,4.521,0,0,0,206.073,406.36Z" transform="translate(-132.632 -72.892)"/><path class="au" d="M205.314,387.54l.291,10.785-9,.141-.291-10.785Z" transform="translate(-132.54 -73.946)"/><path class="as" d="M185.356,118.3c-.344,6.75.258,20-4.652,24.262,3.367,3.645,8.941,6.554,16.779,7.037s6.046-3.9,4.153-6.785c-7.264-1.946-5.96-8.4-4.348-13.474Z" transform="translate(-133.415 -89.03)"/><path class="av" d="M177.459,140.518c.2-1.893,1.371-5.68,6.464-4.374s11.1.848,15.67,1.11,4.827,6,4.827,6Z" transform="translate(-133.597 -88.046)"/><path class="av" d="M179.968,139.069c10.842-.116,24.371,1.2,31.72,3.52a4.847,4.847,0,0,1,3.4,4.368c.435,8.174,1.62,35.082,2.637,77.023l-48.25.781a508.489,508.489,0,0,0-3.791-69.359A14.56,14.56,0,0,1,179.968,139.069Z" transform="translate(-134.262 -87.867)"/><g transform="translate(86.01 63.772)"><g transform="translate(0 0)"><rect class="aw" width="67.535" height="41.114" transform="matrix(0.992, 0.128, -0.128, 0.992, 5.269, 0)"/><path class="ax" d="M0,0H67.535V41.114H0Z" transform="matrix(0.992, 0.128, -0.128, 0.992, 5.269, 0)"/></g><path class="ay" d="M0,0H45.77V41.114H0Z" transform="translate(26.854 2.789) rotate(7.362)"/><path class="o" d="M10.207,0A10.091,10.091,0,0,1,20.415,9.971a10.091,10.091,0,0,1-10.207,9.971A10.091,10.091,0,0,1,0,9.971,10.091,10.091,0,0,1,10.207,0Z" transform="translate(37.417 35.176) rotate(-82.647)"/><rect class="o" width="3.89" height="14.005" transform="matrix(0.992, 0.128, -0.128, 0.992, 13.738, 1.094)"/><rect class="o" width="3.89" height="9.534" transform="matrix(0.992, 0.128, -0.128, 0.992, 9.691, 32.414)"/><g class="r" transform="matrix(0.848, -0.53, 0.53, 0.848, -297.452, 83.404)"><path class="az" d="M317.977,158.83s-.513,1.6-.295,2.1,6.087,4.393,10.652,4.965a.484.484,0,0,0,.377-.116,4.982,4.982,0,0,0,1.4-1.672C330.267,163.434,326.778,164.252,317.977,158.83Z" transform="translate(-1.081 -23.882)"/><path class="ba" d="M319.411,160.8c.447.481,1.064.242,1.446.69s.452.579.974.485c.1-.017.18.079.242.13a2.3,2.3,0,0,0,1.517.706.67.67,0,0,1,.427.152,1.963,1.963,0,0,0,1.313.361.187.187,0,0,1,.1.017c.326.154.356.411.66.629.462.332.888.633,1.421.26a.412.412,0,0,1,.281-.039c.552.1.474.7,1.194.445.373-.134.486.194.684.346a2.408,2.408,0,0,0,.574-.878c.16-.67-3.329.148-12.13-5.274a9.684,9.684,0,0,0-.312,1.316C318.078,160.713,319.033,160.394,319.411,160.8Z" transform="translate(-1.214 -23.882)"/><path class="bb" d="M326.157,165.284a4.994,4.994,0,0,1-1.027-2.258,45.8,45.8,0,0,1-5.705-2.962s-.4,1.315-.192,1.732a25.038,25.038,0,0,0,7.216,3.862C326.346,165.537,326.248,165.413,326.157,165.284Z" transform="translate(-2.288 -24.846)"/><path class="bc" d="M326.712,150.953s-5.188-1.757-5.671-1.322a2.229,2.229,0,0,0-.59,2.037c.249.475,5.235,2.806,6.025,3.244a11.169,11.169,0,0,0,5.574,1.491,1.926,1.926,0,0,0,1.021-2.168C332.682,153.107,327.6,151.431,326.712,150.953Z" transform="translate(-3.223 -16.643)"/><path class="bd" d="M330.882,154.133a7.383,7.383,0,0,1-1.008-1.923,9.17,9.17,0,0,1-.245-1.413,31.657,31.657,0,0,0-3.838-1.016,2.9,2.9,0,0,0,.07,3.056,41.72,41.72,0,0,0,4.537,2.247c.257.079.843.239,1.543.427A12.08,12.08,0,0,1,330.882,154.133Z" transform="translate(-7.144 -16.813)"/><path class="be" d="M325.868,151.238a12.842,12.842,0,0,1,2.162,1.42,14.017,14.017,0,0,1,1.717,1.317c.424.4,1.13,1.667,1.742,1.264a3.554,3.554,0,0,1,1.554-.353,3.93,3.93,0,0,1,1.347.026,1.469,1.469,0,0,0-.069-.677c-.389-1.128-5.476-2.8-6.359-3.282,0,0-5.188-1.757-5.67-1.322a1.7,1.7,0,0,0-.322.42A13.679,13.679,0,0,1,325.868,151.238Z" transform="translate(-4.473 -16.643)"/><path class="bf" d="M319.44,158.343a6.18,6.18,0,0,1,1.165.093,16.427,16.427,0,0,0,2.407,1.239c1.107.3.755.9,2.054,1.215s1.411.925,1.854.978a5.878,5.878,0,0,1,1.734.845c.215.177,1.9-.034,2.323.286s1.061.123,1.077.364.008.783-.709.621-1.125-.068-1.352-.331-2.207-.117-2.289-.468-.767-.634-1.393-.825-.759-.488-1.531-.669-1.633-.931-2.011-.921-1.4-.31-1.546-.638a2,2,0,0,0-1.172-.825C319.784,159.325,319.4,158.507,319.44,158.343Z" transform="translate(-2.495 -23.502)"/><path class="v" d="M317.757,156.58c.009-.018,0-.037.025-.014a.753.753,0,0,1,.212-.016l.006-.02c.09.015.19-.008.276.01l0-.017a4.716,4.716,0,0,0,.556.175c.17.091.343.335.119.46-.1.057-.214.017-.262.158a.377.377,0,0,0,.079.306,2.146,2.146,0,0,0,.7.37c.194.068.594.219.723-.028.052-.064-.04-.163-.018-.245a.255.255,0,0,1,.215-.165,1.378,1.378,0,0,0,.338.082,2.26,2.26,0,0,0,.42.161,3.215,3.215,0,0,1,.345.2c.057.072.112.162.173.229.028.1.08.256-.026.344-.063.052-.156.017-.228.031a1.025,1.025,0,0,0-.219.092.285.285,0,0,0,.04.207.151.151,0,0,1,.05.058,8.934,8.934,0,0,0,.813.406.15.15,0,0,0,.128.042.726.726,0,0,0,.2.087.123.123,0,0,0,.007-.021.067.067,0,0,0,.029.021.026.026,0,0,0,0-.023c.211.007-.07-.294-.1-.365-.093-.25.21-.231.379-.185a2,2,0,0,1,1.182.722.3.3,0,0,1-.345.218c-.046.022-.141.038-.2.07l-.029.061a.418.418,0,0,0,.071.091c.051.094.209.133.286.166a.164.164,0,0,0,.043.02.5.5,0,0,0,.117.061.172.172,0,0,1,.007-.021c.056.028.175.043.209-.04.176-.1.03-.475.358-.342.185.075.391.282.589.164a.538.538,0,0,1,.359.121c.066.319-.2.332-.442.44a.2.2,0,0,1-.024.013c-.007.027-.019.052-.028.079s.012.027.014.043a.042.042,0,0,0,0-.017c.023.093.218.241.292.225.173.2.517-.063.7-.155a1.641,1.641,0,0,1,.377-.165c.147-.034.234.045.356.039a.833.833,0,0,1,.315.423c.043.144.007.373.189.413.48.337,1.054-.448,1.546-.454a.246.246,0,0,1,.274.212c.017.127-.075.233-.06.354a.216.216,0,0,0,.265.176c.138-.028.181-.171.294-.229a.338.338,0,0,1,.469.45,1.037,1.037,0,0,1-.74.425.837.837,0,0,1-.522.156.321.321,0,0,1-.236-.455c.057-.164.208-.388.069-.53a.32.32,0,0,0-.447.078c-.1.066-.183.245-.27.355a1.176,1.176,0,0,1-.3.28c-.032.008-.034.007-.046.017a.652.652,0,0,1-.58-.785c-.061-.16-.141-.5-.371-.227a1.218,1.218,0,0,0-.151.327,2.727,2.727,0,0,0-.166.3.671.671,0,0,1-.695.042,1.74,1.74,0,0,1-.7-.565c-.153-.185-.288-.328-.118-.549.05-.065.176-.174.174-.27a.224.224,0,0,0-.23-.2c-.265-.131-.362.225-.5.378a.631.631,0,0,1-.732.12c-.186-.067-.753-.321-.619-.582.058-.115.236-.122.306-.224a.32.32,0,0,0-.076-.383c-.07-.082-.387-.273-.386-.06-.03.055,0,.148-.016.222s-.066.144-.068.215c-.094.039-.15.152-.217.205a.612.612,0,0,1-.3.118.3.3,0,0,0-.074-.008,2.231,2.231,0,0,1-.831-.6.974.974,0,0,1-.186-.3c-.028-.142.089-.243.085-.383-.007-.237-.418-.561-.5-.206-.042.174.053.3-.035.474a.33.33,0,0,1-.263.224.013.013,0,0,0-.007.014c-.673-.094.016-.839-.374-1.114a.749.749,0,0,0-.6-.11c-.217.126.051.391-.22.5l-.052-.017c-.288-.059-.659-.35-.609-.69.02-.133.171-.219.172-.345a.462.462,0,0,0-.2-.293.267.267,0,0,0-.261-.094c-.146.025-.15.107-.143.241.018.318-.019.48-.315.641a.927.927,0,0,1-.632-.372c-.1-.175-.01-.472.005-.652-.024-.141-.323-.25-.442-.278-.488-.291-.284-1.109.307-.819a1.51,1.51,0,0,1,.485.554c.11.155.382.435.556.18.137-.2-.137-.286-.124-.47C317.779,156.543,317.726,156.586,317.757,156.58Z" transform="translate(0 -21.841)"/><path class="x" d="M322.909,145.957a5.484,5.484,0,0,0-2.795.321l.057.357a16.835,16.835,0,0,1,5.063,1.856,32.587,32.587,0,0,1,4.583,3.493,5.3,5.3,0,0,1,4.24-.085l.155-.33a3.95,3.95,0,0,0-1.342-1.274C332.033,149.848,325.925,148.019,322.909,145.957Z" transform="translate(-3.023 -13.786)"/><path class="y" d="M330.693,152.712c-.429.074-.8.151-.8.151a26.91,26.91,0,0,0-5.014-3.593,22.9,22.9,0,0,0-4.768-1.664l.057.357a16.836,16.836,0,0,1,5.063,1.856,32.584,32.584,0,0,1,4.583,3.493,5.3,5.3,0,0,1,4.24-.085l.155-.33A5.515,5.515,0,0,0,330.693,152.712Z" transform="translate(-3.023 -15.115)"/><path class="bg" d="M339.357,145.59a.636.636,0,0,1,.144.514c-.079.249-.37.692-.534.724a48.612,48.612,0,0,1-11.094-4.82s-.116-.15.225-1.094c0,0,1.13,1.152,6.115,3.276C338.163,145.871,339.357,145.59,339.357,145.59Z" transform="translate(-9.069 -9.887)"/><path class="bh" d="M333.746,144.533a32.139,32.139,0,0,0,3.149,1.135,5.45,5.45,0,0,0,2.69.416.653.653,0,0,0-.147-.5s-1.194.281-5.144-1.4c-4.985-2.123-6.115-3.276-6.115-3.276a4.833,4.833,0,0,0-.222.764C329.662,142.989,331.811,143.647,333.746,144.533Z" transform="translate(-9.15 -9.887)"/><path class="az" d="M335.43,129.419a13.506,13.506,0,0,0-3.316-1.018,7.4,7.4,0,0,0-2.335-.089,3.383,3.383,0,0,0-1.874.907,2.122,2.122,0,0,0-.49,1.85c.226,1.14,9.918,5.267,11.713,4.932a1.721,1.721,0,0,0,.867-1.427,3.168,3.168,0,0,0-.493-1.729,7.537,7.537,0,0,0-1.734-1.97A10.7,10.7,0,0,0,335.43,129.419Z" transform="translate(-8.691)"/><path class="bi" d="M337.4,137.98a15.96,15.96,0,0,1-4.219-1.617,23.134,23.134,0,0,1-4.272-2.133,2.219,2.219,0,0,1-1.048-1.37,2.134,2.134,0,0,0-.45,1.805c.226,1.14,9.918,5.267,11.713,4.932a1.709,1.709,0,0,0,.855-1.339A10.5,10.5,0,0,1,337.4,137.98Z" transform="translate(-8.691 -3.596)"/><path class="bj" d="M359.271,134.372c-.26-.237-1.064-.713-1.365-.3-.259.359.451.788.692.916.273.145.745.292.914.021C359.644,134.8,359.487,134.569,359.271,134.372Z" transform="translate(-32.499 -4.418)"/><path class="bj" d="M363.834,143.071a3,3,0,0,0-2.2-.523c-.587.159-.3.606.022.9a5.1,5.1,0,0,0,1.734,1.06c.425.142,1.193.4,1.37-.177a.684.684,0,0,0-.1-.514A3.126,3.126,0,0,0,363.834,143.071Z" transform="translate(-35.19 -11.118)"/><path class="bk" d="M347.55,133.653c0,.118-.159.218-.363.223s-.371-.085-.375-.2.159-.218.363-.224S347.546,133.535,347.55,133.653Z" transform="translate(-23.876 -4.058)"/><path class="bk" d="M356.846,146.069c0,.118-.159.218-.363.224s-.372-.085-.375-.2.159-.218.363-.223S356.842,145.951,356.846,146.069Z" transform="translate(-31.137 -13.756)"/><path class="bk" d="M367.6,149.972c0,.118-.159.218-.363.223s-.372-.085-.375-.2.159-.218.363-.223S367.6,149.854,367.6,149.972Z" transform="translate(-39.536 -16.804)"/><path class="bk" d="M338.91,133.08c0,.118-.159.218-.363.223s-.372-.085-.375-.2.159-.218.363-.223S338.906,132.962,338.91,133.08Z" transform="translate(-17.128 -3.61)"/><path class="bk" d="M379.159,151.531c0,.118-.159.218-.363.224s-.372-.085-.375-.2.159-.218.363-.224S379.155,151.413,379.159,151.531Z" transform="translate(-48.566 -18.022)"/><path class="bk" d="M361.985,143.806c-.091.074-.269.006-.4-.152s-.159-.347-.067-.421.27-.006.4.152S362.076,143.732,361.985,143.806Z" transform="translate(-35.323 -11.676)"/><path class="bk" d="M371.7,146.187c-.028.115-.21.169-.408.121s-.337-.179-.309-.293.21-.168.408-.121S371.732,146.073,371.7,146.187Z" transform="translate(-42.756 -13.764)"/><path class="bk" d="M344.851,139.652c-.091.074-.27.006-.4-.152s-.159-.347-.067-.421.269-.006.4.152S344.942,139.578,344.851,139.652Z" transform="translate(-21.94 -8.431)"/><path class="bk" d="M353.4,140.138c-.081.061-.247-.022-.37-.185s-.156-.346-.075-.407.247.022.37.185S353.485,140.076,353.4,140.138Z" transform="translate(-28.643 -8.803)"/><path class="bk" d="M335.463,136.134c-.064.079-.245.039-.4-.09s-.235-.3-.171-.377.245-.039.4.09S335.527,136.055,335.463,136.134Z" transform="translate(-14.546 -5.758)"/><path class="bk" d="M368.429,139.6c-.087.066-.254-.009-.372-.166s-.143-.338-.056-.4.254.009.372.166S368.517,139.53,368.429,139.6Z" transform="translate(-40.386 -8.395)"/><path class="bk" d="M377.544,145.517c-.087.066-.254-.009-.372-.166s-.143-.338-.056-.4.254.009.372.166S377.632,145.451,377.544,145.517Z" transform="translate(-47.506 -13.019)"/><path class="bk" d="M353.488,131.851c-.088.066-.254-.009-.372-.166s-.143-.338-.056-.4.254.009.372.166S353.575,131.785,353.488,131.851Z" transform="translate(-28.716 -2.345)"/><path class="bl" d="M340,134.368a14.323,14.323,0,0,1-4.95-1.072,9.45,9.45,0,0,1-3.039-1.548A2.05,2.05,0,0,1,331.4,129a1.786,1.786,0,0,1,.651-.613,7.314,7.314,0,0,0-2.276-.079,3.383,3.383,0,0,0-1.874.907,2.122,2.122,0,0,0-.49,1.85c.226,1.14,9.918,5.267,11.713,4.932a1.721,1.721,0,0,0,.867-1.427A1.63,1.63,0,0,0,340,134.368Z" transform="translate(-8.691 0)"/><path class="bm" d="M334.036,137.352c-.171-.081-.343-.161-.517-.24a25.45,25.45,0,0,1-4.14-2.053,2.247,2.247,0,0,1-1.053-1.243,1.638,1.638,0,0,0-.345,1.555c.15.567,3.2,2.1,6.125,3.289A4.845,4.845,0,0,1,334.036,137.352Z" transform="translate(-9.118 -4.344)"/></g></g><path class="as" d="M216.1,153.6c.23,1.07.547,2.348.827,3.536l.913,3.631c.638,2.415,1.295,4.826,2.023,7.2s1.475,4.735,2.324,7.031c.832,2.3,1.714,4.567,2.714,6.722.5,1.078,1.005,2.142,1.544,3.166.262.523.55,1.007.823,1.515l.432.727.216.365.026.045c.011.017-.027-.039-.039-.055l-.116-.143c-.084-.091-.166-.181-.253-.265a3.135,3.135,0,0,0-1.01-.656,1.107,1.107,0,0,0-.49-.107c-.131.035.08.121.393.15a12.461,12.461,0,0,0,2.732-.193c4.351-.732,9.364-2.421,14.155-3.9l3.343,5.889a57.977,57.977,0,0,1-6.775,4.8,45.726,45.726,0,0,1-7.753,3.846,21.38,21.38,0,0,1-4.962,1.249,12.562,12.562,0,0,1-3.511-.045,9.769,9.769,0,0,1-2.353-.7,8.8,8.8,0,0,1-2.6-1.784,7.261,7.261,0,0,1-.576-.633l-.266-.338-.153-.209-.323-.454-.645-.911c-.4-.613-.826-1.224-1.2-1.842-.777-1.233-1.508-2.476-2.176-3.736a98.543,98.543,0,0,1-6.523-15.377c-.866-2.6-1.654-5.219-2.344-7.86-.355-1.318-.676-2.645-.98-3.98-.315-1.358-.568-2.632-.843-4.128Z" transform="translate(-132.184 -87.053)"/><g transform="translate(65.416 54.273)"><path class="av" d="M198.83,147.348c-4.306,7.579,7.25,32.874,7.25,32.874l17.9-6.831s-.692-12.807-5.411-22.694C213.722,140.547,203.557,139.03,198.83,147.348Z" transform="translate(-197.869 -141.977)"/></g><path class="at" d="M253.6,177.244l-3.26.282a17.137,17.137,0,0,0-5.409,1.378l-4.859,2.129a1.361,1.361,0,0,0-.747,1.677l1.907,5.76a1.357,1.357,0,0,0,1.439.927c5.286-.621,7.524-1.716,7.524-1.716l4.135-1.674a1.886,1.886,0,0,0,1.1-1.715l.208-4.746A2.087,2.087,0,0,0,253.6,177.244Z" transform="translate(-130.134 -85.728)"/><path class="at" d="M242.943,182.172c.978-1.131,2.156-5.844,1.449-7.056s-1.777,1.877-2.478,2.7c-1.936,2.28-3.547,4.589-2.176,5.257S241.241,184.141,242.943,182.172Z" transform="translate(-130.136 -85.863)"/><path class="bn" d="M205.891,113.166c.06.724.492,1.277.966,1.234s.81-.666.75-1.391-.491-1.277-.965-1.233S205.832,112.441,205.891,113.166Z" transform="translate(-132.004 -89.396)"/><path class="bo" d="M205.062,113.054a25.741,25.741,0,0,0,3.973,5.881c-1.184,1.314-3.41.966-3.41.966Z" transform="translate(-132.05 -89.324)"/><path class="bn" d="M203.579,109.713a.425.425,0,0,1-.339-.654,4.282,4.282,0,0,1,3.322-2.072.422.422,0,0,1,.433.418.434.434,0,0,1-.42.436h0a3.42,3.42,0,0,0-2.613,1.67A.434.434,0,0,1,203.579,109.713Z" transform="translate(-132.156 -89.664)"/><path class="as" d="M182.451,112.833c1.278,8.849,1.576,14.1,6.448,18.256,7.329,6.255,17.985,1.176,19.38-7.9,1.255-8.169-1.047-21.269-10.053-24.016A12.322,12.322,0,0,0,182.451,112.833Z" transform="translate(-133.324 -90.134)"/><path class="at" d="M204.2,117.757a4.178,4.178,0,0,0,1.044-6.3c-1.436-1.7-3.982-4.636-2.546-5.877s8.828-3.787,6.111-8.88-8.462-8.226-12.249-4.44-4.962,1.828-11.1,1.044-8.88,5.485-6.79,7.966-5.485,3.723-3,6.987c-4.636,2.416-.131,9.99,3.526,13.255s1.174,8.749,7.443,10.773S207,124.844,204.2,117.757Z" transform="translate(-133.808 -90.583)"/><path class="d" d="M202.241,128.336a.586.586,0,0,1-.5-.286c-.2-.334-4.839-8.219-1.612-12.661,1.1-1.513,2.254-2.237,3.439-2.143,1.948.152,3.347,2.418,4.349,4.375a.588.588,0,0,1-1.047.535c-.458-.894-1.851-3.618-3.393-3.739-.752-.05-1.554.5-2.4,1.663-2.772,3.815,1.624,11.291,1.67,11.366a.589.589,0,0,1-.2.806A.582.582,0,0,1,202.241,128.336Z" transform="translate(-132.39 -89.314)"/><path class="ar" d="M148.419,403.913a.217.217,0,0,1-.132-.181.214.214,0,0,1,.126-.212c.421-.188,4.146-1.815,5.205-1.143a.681.681,0,0,1,.32.587h0a1.2,1.2,0,0,1-.459,1.015c-1.037.817-3.6.315-5.032-.058Zm4.894-1.214c-.665-.273-2.671.362-4.138.961,1.969.445,3.456.443,4.039-.016a.778.778,0,0,0,.3-.671.254.254,0,0,0-.121-.236A.514.514,0,0,0,153.313,402.7Z" transform="translate(-135.231 -73.124)"/><path class="ar" d="M149.884,400.408a1.616,1.616,0,0,1,1.2-.292c.584.091.741.405.763.641.1,1.034-2.157,2.854-3.269,3.281a.246.246,0,0,1-.157-.011.083.083,0,0,1-.056-.023.234.234,0,0,1-.079-.2C148.3,403.7,148.682,401.284,149.884,400.408Zm1.54.394c0-.034-.011-.135-.191-.2a1.791,1.791,0,0,0-.213-.068,1.027,1.027,0,0,0-.18-.011,1.215,1.215,0,0,0-.709.236,4.941,4.941,0,0,0-1.337,2.709C149.941,402.869,151.491,401.419,151.423,400.8Z" transform="translate(-135.231 -73.243)"/><path class="as" d="M139.822,404.033l8.688,2.263,5.875-20.155-8.688-2.263Z" transform="translate(-135.705 -74.151)"/><path class="at" d="M149.349,403.593l-9.517-2.481a.694.694,0,0,0-.838.419l-2.977,7.522a1.469,1.469,0,0,0,1,1.922c3.442.835,4.593.854,8.908,1.979,5.045,1.316,5.918,4.059,12.032,4.111,3.7.032,4.379-3.7,2.8-4.066-4.982-1.17-7.819-5.506-9.426-8.161A3.18,3.18,0,0,0,149.349,403.593Z" transform="translate(-135.924 -73.187)"/><path class="au" d="M154.231,386.145l-3.026,10.39-8.692-2.264,3.027-10.389Z" transform="translate(-135.554 -74.151)"/><path class="at" d="M160.554,306.354c5.2-33.864,2.98-66.833,10.262-86.112l31.884-.514s-13.83,61.75-20.052,88.756c-6.467,28.08-26.991,93.231-26.991,93.231l-14.069-3.69S152.289,330.787,160.554,306.354Z" transform="translate(-135.606 -83.348)"/><path class="au" d="M181.352,276.687c0,6.7.492,13.945,1.166,21.677,4.117-18.073,9.871-43.631,13.753-60.88C184.55,246.222,181.352,259.663,181.352,276.687Z" transform="translate(-133.378 -82.353)"/><path class="as" d="M198.229,117.4a7.15,7.15,0,0,0,3.442,4.287c2.23,1.2,3.917-.662,3.775-3.051-.128-2.15-1.443-5.364-3.911-5.575A3.264,3.264,0,0,0,198.229,117.4Z" transform="translate(-132.441 -89.325)"/><path class="d" d="M206.683,114.829c2.768.5,3.2,3.331,3.2,4.572s-2.5,10.708-7.566,12.5-5.068.588-4.317-.7S205.54,123.514,206.683,114.829Z" transform="translate(-132.466 -89.225)"/><path class="at" d="M191.249,306.662c-4.348-35.474-10.191-67.845-5.665-86.683l31.078-.5s-1.8,63.168-3.3,90.609c-1.561,28.532-3.749,95.517-3.749,95.517l-15.271.232S189.137,342.46,191.249,306.662Z" transform="translate(-133.233 -83.362)"/><path class="bn" d="M210.164,396.368l-18.153.285-1.025-5.88,20.238-.628Z" transform="translate(-132.839 -73.8)"/><path class="bn" d="M156.916,395.862l-17.569-4.579.584-5.94,19.67,4.806Z" transform="translate(-135.732 -74.069)"/></g><g transform="translate(258.76 44.878)"><path class="at" d="M348.274,115.4c-11.092,8.968-13.918,23.442-9.922,30,5.68,9.325,28.507,11.8,39.339,6.187,5.038-2.612,9.588-32.245-5.033-37.909C367.135,105.7,354.555,110.32,348.274,115.4Z" transform="translate(-295.636 -109.374)"/><path class="as" d="M386.975,385.493l-8.058,5.739-22.592-21.491,9.727-10.54Z" transform="translate(-294.533 -95.377)"/><path class="at" d="M376.988,388l8.159-7.546a.758.758,0,0,1,1-.071l6.411,5.19a1.539,1.539,0,0,1-.068,2.287c-2.886,2.585-4.4,3.7-7.987,7.015-2.208,2.042-6.579,6.48-9.628,9.3-2.981,2.758-5.77.145-4.732-1.285,4.652-6.411,5.458-10.065,6.008-13.348A2.729,2.729,0,0,1,376.988,388Z" transform="translate(-293.771 -94.199)"/><path class="bp" d="M375.227,391.245a3.9,3.9,0,0,1-2.141,1.21,1.146,1.146,0,0,1-1.021-.5.706.706,0,0,1-.1-.7c.475-1.281,4.626-2.571,5.1-2.715a.21.21,0,0,1,.241.082.228.228,0,0,1-.014.262A18.034,18.034,0,0,1,375.227,391.245Zm-2.57-.211a1,1,0,0,0-.268.356.275.275,0,0,0,.044.28.747.747,0,0,0,.666.333c.777-.036,2.033-1.076,3.413-2.815A13.312,13.312,0,0,0,372.656,391.034Z" transform="translate(-293.659 -93.733)"/><path class="bp" d="M377.243,389a.243.243,0,0,1-.083.051c-1.2.434-4.241.55-4.8-.345-.133-.212-.2-.566.233-1.053a1.788,1.788,0,0,1,1.2-.6c1.559-.131,3.387,1.546,3.464,1.618a.216.216,0,0,1,.059.211A.261.261,0,0,1,377.243,389Zm-4.229-1.16a1.283,1.283,0,0,0-.1.1c-.287.32-.2.457-.173.5.339.538,2.547.618,3.883.3a4.8,4.8,0,0,0-2.827-1.244A1.271,1.271,0,0,0,373.013,387.845Z" transform="translate(-293.64 -93.816)"/><path class="as" d="M368.559,410.263l-9.551.33-1.833-33.352,13.26.189Z" transform="translate(-294.485 -94.366)"/><path class="at" d="M359.048,405.943l10.714-.076a.688.688,0,0,1,.717.645l.646,8.464a1.675,1.675,0,0,1-1.644,1.707c-3.731-.038-5.517-.245-10.229-.211-2.9.021-7.154.352-11.157.38-3.916.027-3.948-3.926-2.257-4.3,7.582-1.659,8.914-3.883,11.575-6.015A2.675,2.675,0,0,1,359.048,405.943Z" transform="translate(-295.18 -92.762)"/><g transform="translate(0 56.266)"><path class="bq" d="M344.677,169.347c-.568,2.251-1.2,4.4-1.841,6.59s-1.317,4.35-2.038,6.513c-1.446,4.332-2.994,8.628-4.927,12.966-.488,1.088-.994,2.182-1.583,3.3a28.281,28.281,0,0,1-2.13,3.507,11.646,11.646,0,0,1-2.107,2.273,6.358,6.358,0,0,1-2.943,1.237,8.1,8.1,0,0,1-1.855.059,12.579,12.579,0,0,1-2.489-.49c-.706-.208-1.341-.439-1.95-.68a42.775,42.775,0,0,1-6.452-3.4,58.109,58.109,0,0,1-5.685-4.12,2.7,2.7,0,0,1,2.536-4.664l.076.024,6.258,2a61.192,61.192,0,0,0,5.967,1.657,12.376,12.376,0,0,0,1.282.212,2.435,2.435,0,0,0,.827-.005c.044-.013.03-.044-.184-.029a2.8,2.8,0,0,0-1.409.605l-.124.1c-.031.027-.011.006-.019.012l-.008,0-.013,0c-.005-.005-.02.03.022-.044.062-.114.11-.147.208-.329a20.341,20.341,0,0,0,1.169-2.329c.4-.893.793-1.847,1.167-2.824,1.493-3.928,2.825-8.112,4.114-12.3l1.908-6.314,1.848-6.314.006-.022a5.375,5.375,0,0,1,10.369,2.826Z" transform="translate(-297.258 -162.655)"/><path class="at" d="M304.708,183.258l-3.551-.851a1.882,1.882,0,0,0-2.278,1.429l-1.024,4.714a1.881,1.881,0,0,0,1.019,2.093l5.487,2.655a8.437,8.437,0,0,0,4.867,2.9,2.649,2.649,0,0,0,2.732-1.786l.4-1.108a2.712,2.712,0,0,0-.35-2.5l-3.694-5.131A6.26,6.26,0,0,0,304.708,183.258Z" transform="translate(-297.811 -161.551)"/><path class="at" d="M307.87,190.78c-.388-1.469.58-6.622,1.658-7.556s1.007,2.234,1.231,3.459c.547,2.99,1.781,5.321.79,7.274C310.849,195.338,308.546,193.335,307.87,190.78Z" transform="translate(-297.253 -161.512)"/></g><path class="bq" d="M332.142,170.6c-.469,8.383-.493,22.207.748,45l38.44,1.255c.936-14.319,1.857-23.663,10.1-49.139a8.115,8.115,0,0,0-6.412-10.53c-2.122-.337-4.449-.641-6.807-.833a120.662,120.662,0,0,0-17.455-.569c-1.589.093-3.227.232-4.824.394A15.362,15.362,0,0,0,332.142,170.6Z" transform="translate(-295.904 -106.781)"/><path class="j" d="M349.9,155.779s-5.474.888-1.156,12.566a59.751,59.751,0,0,0,18.611-12Z" transform="translate(-295.05 -106.774)"/><ellipse class="j" cx="5.289" cy="4.706" rx="5.289" ry="4.706" transform="translate(58.696 75.428) rotate(-79.112)"/><path class="au" d="M371.611,171.021c-.477,5.816-.867,15.789.329,22.037.869-4.163,2.033-8.821,3.647-14.4Z" transform="translate(-293.702 -105.92)"/><path class="as" d="M367.707,137.452c-1.7,5.64-3.907,16.006-.38,19.923,0,0-5.864,4.854-17.748,9.834-4.506-9.106.293-10.4.293-10.4,6.424-1.307,6.761-6.01,6.138-10.457Z" transform="translate(-295.019 -107.8)"/><path class="au" d="M364.023,141.6l-8.452,4.51a17.864,17.864,0,0,1,.206,3.149c1.822.059,6.436-1.573,8.051-4.591A4.422,4.422,0,0,0,364.023,141.6Z" transform="translate(-294.575 -107.568)"/><path class="as" d="M373.832,127.071c-1.025,9.4-1.259,13.407-6.252,18.023-7.51,6.942-18.838,3.625-20.643-5.9-1.624-8.571.326-22.51,9.737-25.827A12.9,12.9,0,0,1,373.832,127.071Z" transform="translate(-295.088 -109.193)"/><path class="at" d="M360.245,114.31c-6.493,3.732,7.46,18.239,10.987,18.042,5.983-3.523,6.08-10.755,2.748-14.207S368.21,109.733,360.245,114.31Z" transform="translate(-294.408 -109.2)"/><path class="d" d="M366.091,140.242a.6.6,0,0,1-.1-1.184c4.192-.737,6.837-2.1,7.447-3.834.472-1.345-.345-2.669-1.114-3.543a2.065,2.065,0,0,0-1.493-.727c-2.508-.171-6.071,3.023-7.418,4.22l-.276.243a.6.6,0,1,1-.787-.9l.269-.24c1.583-1.408,5.3-4.719,8.284-4.519a3.247,3.247,0,0,1,2.317,1.131c1.384,1.572,1.862,3.251,1.344,4.727-.781,2.224-3.6,3.776-8.367,4.614A.579.579,0,0,1,366.091,140.242Z" transform="translate(-294.207 -108.232)"/><path class="bn" d="M367.9,113.627c4.613,2.145-16.543,2.216-20.907,7.791C350.628,115.884,356.027,108.108,367.9,113.627Z" transform="translate(-295.056 -109.241)"/><g transform="translate(18.816 108.822)"><path class="at" d="M333.8,212.422s-19.827,84.336-18.057,105.949c2.069,25.271,42.8,61.542,42.8,61.542l11.587-12.631s-24.594-27.8-33.916-49.532c2.99-21.73,30.241-83.646,29.091-104.3Z" transform="translate(-315.629 -212.422)"/><path class="br" d="M333.8,212.422s-19.827,84.336-18.057,105.949c2.069,25.271,42.8,61.542,42.8,61.542l11.587-12.631s-24.594-27.8-33.916-49.532c2.99-21.73,30.241-83.646,29.091-104.3Z" transform="translate(-315.629 -212.422)"/></g><path class="at" d="M370.549,360.72,356.64,373.232l-4.1-2.561,15.2-14.437Z" transform="translate(-294.745 -95.543)"/><path class="bs" d="M347.961,247.078c-11.134,15.427-11.68,43.8-10.985,59.736,3.823-14.645,12.007-36.093,18.385-55.79C355.214,243.454,353.174,239.855,347.961,247.078Z" transform="translate(-295.628 -101.878)"/><g transform="translate(44.165 108.492)"><path class="at" d="M339.633,212.11s7.8,73.06,10.27,98.016c2.937,29.629,7.25,77.147,7.25,77.147l14.265-.592s3.128-40.285.8-66.832c.426-35.236,6.579-84.4-1.327-106.155Z" transform="translate(-339.633 -212.11)"/></g><path class="at" d="M371.68,380.212l-16.358-.461-1.144-5.147,18.507-.514Z" transform="translate(-294.653 -94.542)"/><path class="bn" d="M357.907,128.431c-.037.768-.473,1.372-.976,1.347s-.879-.665-.843-1.434.473-1.371.975-1.346S357.943,127.663,357.907,128.431Z" transform="translate(-294.546 -108.386)"/><path class="bn" d="M349.686,128.042c-.036.768-.473,1.371-.975,1.347s-.88-.666-.843-1.434.472-1.371.975-1.347S349.723,127.273,349.686,128.042Z" transform="translate(-295.007 -108.408)"/><path class="bn" d="M349.1,126.691l-1.82-.619S348.155,127.558,349.1,126.691Z" transform="translate(-295.04 -108.438)"/><path class="bt" d="M352.22,129.191a20.527,20.527,0,0,1-2.97,4.772,3.3,3.3,0,0,0,2.713.643Z" transform="translate(-294.929 -108.263)"/><path class="bn" d="M356.091,137.327a7.437,7.437,0,0,1-1.294.051.226.226,0,0,1,.022-.452,6.084,6.084,0,0,0,5.073-2.143.226.226,0,1,1,.366.264A6.306,6.306,0,0,1,356.091,137.327Z" transform="translate(-294.63 -107.955)"/><path class="as" d="M374.351,134.7a6.921,6.921,0,0,1-4.324,3.032c-2.37.508-3.408-1.647-2.626-3.807.7-1.944,2.786-4.551,5.106-4.092A3.106,3.106,0,0,1,374.351,134.7Z" transform="translate(-293.927 -108.23)"/><path class="bn" d="M360.3,126a.457.457,0,0,1-.229-.274,3.591,3.591,0,0,0-2.18-2.427.452.452,0,0,1,.258-.866,4.478,4.478,0,0,1,2.788,3.035.451.451,0,0,1-.637.531Z" transform="translate(-294.463 -108.643)"/><path class="bn" d="M346.788,124.337a.447.447,0,0,1-.325-.083.452.452,0,0,1-.1-.632,4.48,4.48,0,0,1,3.652-1.911.452.452,0,0,1-.05.9,3.57,3.57,0,0,0-2.874,1.545A.448.448,0,0,1,346.788,124.337Z" transform="translate(-295.096 -108.682)"/><path class="bp" d="M353.329,407.08a1.257,1.257,0,0,1-.2-1.1.849.849,0,0,1,.492-.638c1.144-.509,3.913,1.339,4.225,1.551a.211.211,0,0,1,.082.227.248.248,0,0,1-.183.182c-1.255.3-3.485.684-4.324-.125A.925.925,0,0,1,353.329,407.08Zm3.8-.092c-1.132-.705-2.749-1.5-3.35-1.231a.355.355,0,0,0-.208.287.812.812,0,0,0,.176.8C354.2,407.282,355.447,407.33,357.129,406.988Z" transform="translate(-294.714 -92.796)"/><path class="bp" d="M356.341,406.349a3.621,3.621,0,0,1-1.059-2.576.868.868,0,0,1,.8-.635,1.109,1.109,0,0,1,.936.294c.969.908.8,3.655.793,3.772a.245.245,0,0,1-.126.2.225.225,0,0,1-.225,0A4.743,4.743,0,0,1,356.341,406.349Zm.453-2.473a.888.888,0,0,0-.1-.1.687.687,0,0,0-.588-.187c-.291.037-.361.165-.391.272-.175.656.8,2.192,1.659,2.909A5.413,5.413,0,0,0,356.794,403.876Z" transform="translate(-294.593 -92.915)"/><g transform="translate(35.996 106.232)"><path class="bu" d="M372.144,211.553l.614,3.51c.107.273-.239.539-.683.525L332.511,214.3c-.346-.012-.615-.192-.614-.414l.022-3.489c0-.242.324-.436.7-.423l38.927,1.27A.641.641,0,0,1,372.144,211.553Z" transform="translate(-331.897 -209.969)"/></g><g transform="translate(70.161 107.027)"><path class="at" d="M364.637,215.74l1.043.034c.207.006.377-.1.377-.229l-.009-4.535c0-.133-.17-.247-.378-.253l-1.042-.034c-.208-.007-.378.1-.377.228l.008,4.536C364.26,215.619,364.43,215.733,364.637,215.74Z" transform="translate(-364.25 -210.723)"/><path class="br" d="M364.637,215.74l1.043.034c.207.006.377-.1.377-.229l-.009-4.535c0-.133-.17-.247-.378-.253l-1.042-.034c-.208-.007-.378.1-.377.228l.008,4.536C364.26,215.619,364.43,215.733,364.637,215.74Z" transform="translate(-364.25 -210.723)"/></g><g transform="translate(39.113 106.014)"><path class="at" d="M335.236,214.78l1.042.034c.208.006.378-.1.377-.229l-.008-4.535c0-.132-.171-.247-.378-.253l-1.042-.034c-.208-.007-.378.1-.377.229l.008,4.535C334.857,214.659,335.028,214.773,335.236,214.78Z" transform="translate(-334.849 -209.763)"/><path class="br" d="M335.236,214.78l1.042.034c.208.006.378-.1.377-.229l-.008-4.535c0-.132-.171-.247-.378-.253l-1.042-.034c-.208-.007-.378.1-.377.229l.008,4.535C334.857,214.659,335.028,214.773,335.236,214.78Z" transform="translate(-334.849 -209.763)"/></g><g transform="translate(54.637 106.52)"><path class="at" d="M349.937,215.26l1.042.034c.208.006.377-.1.377-.229l-.009-4.535c0-.133-.17-.247-.378-.253l-1.042-.034c-.208-.007-.377.1-.377.229l.009,4.535C349.559,215.139,349.729,215.253,349.937,215.26Z" transform="translate(-349.549 -210.243)"/><path class="br" d="M349.937,215.26l1.042.034c.208.006.377-.1.377-.229l-.009-4.535c0-.133-.17-.247-.378-.253l-1.042-.034c-.208-.007-.377.1-.377.229l.009,4.535C349.559,215.139,349.729,215.253,349.937,215.26Z" transform="translate(-349.549 -210.243)"/></g><g transform="translate(41.058 52.094)"><path class="bq" d="M380.688,162.853c1.439,6.151,2.595,12.217,3.49,18.449.447,3.107.865,6.237,1.124,9.424a72.87,72.87,0,0,1,.245,9.906c-.062.886-.145,1.79-.286,2.745-.072.479-.184,1-.281,1.5l-.223.829a8.077,8.077,0,0,1-.357,1.07,7.517,7.517,0,0,1-1.835,2.642,8.555,8.555,0,0,1-2.194,1.443,11.528,11.528,0,0,1-3.618.937,25.1,25.1,0,0,1-5.6-.134c-1.711-.215-3.334-.542-4.924-.9a97.787,97.787,0,0,1-17.952-6.283,2.674,2.674,0,0,1,1.656-5.051l.081.018c5.867,1.243,11.881,2.437,17.633,3.084,1.434.159,2.854.258,4.2.284a15.96,15.96,0,0,0,3.589-.234,1.96,1.96,0,0,0,.8-.29c-.011-.013-.11.016-.288.169a2.074,2.074,0,0,0-.558.751c-.094.263-.035.04-.027-.033l.059-.286.09-.774c.048-.567.068-1.2.075-1.844a71.941,71.941,0,0,0-.637-8.473c-.382-2.918-.8-5.873-1.312-8.827-1.031-5.894-2.21-11.886-3.431-17.719l-.015-.069a5.374,5.374,0,0,1,10.493-2.325Z" transform="translate(-336.129 -158.703)"/><path class="at" d="M342.816,190.164l-3.221-.548a1.883,1.883,0,0,0-2.176,1.579l-.708,4.772a1.883,1.883,0,0,0,1.156,2.021l5.653,2.281s4.65,3.632,8.335,1.91l-.017-3.939-4.635-5.554A7.316,7.316,0,0,0,342.816,190.164Z" transform="translate(-336.691 -156.973)"/></g><path class="bn" d="M357.316,127.081l-1.819-.619S356.375,127.947,357.316,127.081Z" transform="translate(-294.579 -108.416)"/><path class="d" d="M365.488,134.962l1.77,3.708a1.466,1.466,0,0,1,.137.793c-.214,2.006,3.229,9.771-15.682,8.9-5.562-.258-6.227-10.86-5.658-14.2a1.422,1.422,0,0,1,1.1-1.164l4.077-.879a1.33,1.33,0,0,1,.5-.013l12.735,2.077A1.383,1.383,0,0,1,365.488,134.962Z" transform="translate(-295.118 -108.101)"/></g></g></g></svg>