<svg xmlns="http://www.w3.org/2000/svg" width="45" height="45" viewBox="0 0 45 45"><defs><style>.a{fill:#fff;}</style></defs><g transform="translate(0.001 0)"><path class="a" d="M30.983,169.935a3.957,3.957,0,0,1-1.994-3.433,11,11,0,0,1,10.986-10.986H44.5L44.716,152H19.063l1.843,30.4a1.318,1.318,0,0,0,1.316,1.239h8.089a6.557,6.557,0,0,1-1.322-3.955,3.962,3.962,0,0,1,2.612-3.72,5.255,5.255,0,0,1,0-5.747c-.43-.1-.668-.192-.62-.285Zm0,0" transform="translate(-17.389 -138.641)"/><path class="a" d="M14.5,10.723H27.685a1.318,1.318,0,0,0,0-2.637H16.935l3.554-5.449h4.559a1.318,1.318,0,1,0,0-2.637H19.774a1.317,1.317,0,0,0-1.1.6L13.787,8.086H1.317a1.318,1.318,0,0,0,0,2.637H14.5Zm0,0"/><path class="a" d="M162,230.35a1.318,1.318,0,0,0,1.318,1.318h28.125a1.318,1.318,0,0,0,1.318-1.318,8.359,8.359,0,0,0-8.35-8.35H170.35A8.359,8.359,0,0,0,162,230.35Zm0,0" transform="translate(-147.763 -202.488)"/><path class="a" d="M184.637,362a2.637,2.637,0,1,0,0,5.273H206.61a2.637,2.637,0,1,0,0-5.273Zm0,0" transform="translate(-166.005 -330.183)"/><path class="a" d="M191.444,452H163.318A1.318,1.318,0,0,0,162,453.318a3.96,3.96,0,0,0,3.955,3.955h22.852a3.96,3.96,0,0,0,3.955-3.955A1.318,1.318,0,0,0,191.444,452Zm0,0" transform="translate(-147.763 -412.273)"/></g></svg>