<svg xmlns="http://www.w3.org/2000/svg" width="48.7" height="42.287" viewBox="0 0 48.7 42.287"><defs><style>.a{fill:#fff;}</style></defs><g transform="translate(0 -33.714)"><path class="a" d="M10,168.773H0v29.456H10ZM6.605,188.051H3.392V185.2H6.605Zm0-6.426H3.392V178.77H6.605ZM3.392,175.2v-2.855H6.605V175.2Z" transform="translate(0 -122.228)"/><path class="a" d="M406.954,198.229h10V168.773h-10Zm3.392-25.885h3.213V175.2h-3.213Zm0,6.426h3.213v2.855h-3.213Zm3.213,6.426v2.855h-3.213V185.2Z" transform="translate(-368.251 -122.228)"/><path class="a" d="M203.477,438.865h3.571v3.752h-3.571Z" transform="translate(-184.124 -366.616)"/><path class="a" d="M271,438.865h3.571v3.752H271Z" transform="translate(-245.224 -366.616)"/><path class="a" d="M135.046,76H138.7V69.4h15.707V76h3.658V33.714H135.046Zm13.118-10.172H144.95V62.975h3.213Zm0-6.423H144.95V56.552h3.213Zm0-6.423H144.95V50.13h3.213Zm6.426,12.845h-3.213V62.975h3.213Zm0-6.423h-3.213V56.552h3.213Zm0-6.423h-3.213V50.13h3.213ZM141.737,40.5h3.392v-3.39h2.855V40.5h3.392v2.854h-3.392v3.39h-2.855v-3.39h-3.392Zm-3.213,9.63h3.213v2.854h-3.213Zm0,6.423h3.213v2.854h-3.213Zm0,6.423h3.213v2.854h-3.213Z" transform="translate(-122.207 0)"/></g></svg>