<svg xmlns="http://www.w3.org/2000/svg" width="53" height="31.365" viewBox="0 0 53 31.365"><defs><style>.a{fill:#fff;fill-rule:evenodd;}</style></defs><path class="a" d="M37.783.312c4.6,1.066,6.353,3.753,8.557,7.452H37.783ZM10.929,8.074a1.363,1.363,0,0,1,1.553,1.449,1.553,1.553,0,0,1-1.548,1.553H1.552a1.553,1.553,0,1,0,0,3.105H15.527a1.553,1.553,0,1,1,.006,3.105H1.552a1.553,1.553,0,1,0,0,3.105H4.968v4.658A1.553,1.553,0,0,0,6.521,26.6H9.642a5.953,5.953,0,0,0,11.666,0H37.074a5.953,5.953,0,0,0,11.666,0h2.707A1.553,1.553,0,0,0,53,25.051V15.734c0-4.556-4.805-4.858-4.81-4.865H36.23a1.553,1.553,0,0,1-1.553-1.553V0H6.521A1.553,1.553,0,0,0,4.968,1.553V4.969H3.105a1.553,1.553,0,0,0,0,3.105ZM44.92,23.4a2.847,2.847,0,1,1-4.86,2.013A2.847,2.847,0,0,1,44.92,23.4Zm-27.432,0a2.847,2.847,0,1,1-4.86,2.013A2.847,2.847,0,0,1,17.488,23.4Zm0,0" transform="translate(0)"/></svg>