<svg xmlns="http://www.w3.org/2000/svg" width="20" height="20" viewBox="0 0 20 20"><defs><style>.a{fill:#2c4bff;}</style></defs><g transform="translate(0.001 0)"><path class="a" d="M24.376,159.995a1.764,1.764,0,0,1-.889-1.53,4.9,4.9,0,0,1,4.9-4.9H30.4L30.5,152H19.063l.821,13.552a.588.588,0,0,0,.587.552h3.606a2.923,2.923,0,0,1-.589-1.763,1.766,1.766,0,0,1,1.164-1.658,2.342,2.342,0,0,1,0-2.562C24.461,160.078,24.355,160.036,24.376,159.995Zm0,0" transform="translate(-18.317 -146.104)"/><path class="a" d="M6.462,4.78H12.34a.588.588,0,0,0,0-1.175H7.548L9.132,1.175h2.032a.588.588,0,1,0,0-1.175H8.814a.587.587,0,0,0-.492.267L6.145,3.6H.586a.588.588,0,0,0,0,1.175H6.462Zm0,0" transform="translate(0)"/><path class="a" d="M162,225.722a.588.588,0,0,0,.588.588h12.537a.588.588,0,0,0,.588-.588A3.726,3.726,0,0,0,171.99,222h-6.268A3.726,3.726,0,0,0,162,225.722Zm0,0" transform="translate(-155.713 -213.335)"/><path class="a" d="M183.175,362a1.175,1.175,0,1,0,0,2.351h9.794a1.175,1.175,0,1,0,0-2.351Zm0,0" transform="translate(-174.93 -347.865)"/><path class="a" d="M175.124,452H162.588a.588.588,0,0,0-.588.588,1.765,1.765,0,0,0,1.763,1.763h10.186a1.765,1.765,0,0,0,1.763-1.763A.588.588,0,0,0,175.124,452Zm0,0" transform="translate(-155.713 -434.351)"/></g></svg>