<svg xmlns="http://www.w3.org/2000/svg" width="22.703" height="19.713" viewBox="0 0 22.703 19.713"><defs><style>.a{fill:#2c4bff;}</style></defs><g transform="translate(0 -33.714)"><path class="a" d="M4.66,168.773H0V182.5H4.66ZM3.079,177.76h-1.5v-1.331h1.5Zm0-3h-1.5v-1.331h1.5Zm-1.5-3v-1.331h1.5v1.331Z" transform="translate(0 -129.078)"/><path class="a" d="M406.954,182.5h4.66V168.773h-4.66Zm1.581-12.067h1.5v1.331h-1.5Zm0,3h1.5v1.331h-1.5Zm1.5,3v1.331h-1.5v-1.331Z" transform="translate(-388.911 -129.078)"/><path class="a" d="M203.477,438.865h1.665v1.749h-1.665Z" transform="translate(-194.455 -387.187)"/><path class="a" d="M271,438.865h1.665v1.749H271Z" transform="translate(-258.984 -387.187)"/><path class="a" d="M135.046,53.427h1.705V50.349h7.322v3.078h1.705V33.714H135.046Zm6.115-4.742h-1.5v-1.33h1.5Zm0-2.994h-1.5v-1.33h1.5Zm0-2.994h-1.5v-1.33h1.5Zm3,5.988h-1.5v-1.33h1.5Zm0-2.994h-1.5v-1.33h1.5Zm0-2.994h-1.5v-1.33h1.5Zm-5.991-5.82h1.581V35.3h1.331v1.58h1.581v1.33h-1.581v1.58h-1.331v-1.58h-1.581Zm-1.5,4.489h1.5V42.7h-1.5Zm0,2.994h1.5v1.33h-1.5Zm0,2.994h1.5v1.33h-1.5Z" transform="translate(-129.061 0)"/></g></svg>