<svg xmlns="http://www.w3.org/2000/svg" width="32.462" height="19.856" viewBox="0 0 32.462 19.856"><defs><style>.a{fill:#fff;}</style></defs><path class="a" d="M409.259,362.789a9.928,9.928,0,1,1,9.928-9.928A9.939,9.939,0,0,1,409.259,362.789Zm0-18.245a8.318,8.318,0,1,0,8.318,8.317A8.327,8.327,0,0,0,409.259,344.543Z" transform="translate(-399.331 -342.933)"/><g transform="translate(12.606)"><path class="a" d="M425.993,362.789a9.928,9.928,0,1,1,9.928-9.928A9.939,9.939,0,0,1,425.993,362.789Zm0-18.245a8.318,8.318,0,1,0,8.318,8.317A8.327,8.327,0,0,0,425.993,344.543Z" transform="translate(-416.065 -342.933)"/></g></svg>