<svg xmlns="http://www.w3.org/2000/svg" width="16.626" height="16.626" viewBox="0 0 16.626 16.626"><defs><style>.a{fill:#fbbb00;}.b{fill:#518ef8;}.c{fill:#28b446;}.d{fill:#f14336;}</style></defs><path class="a" d="M3.685,143.826l-.579,2.161-2.115.045a8.328,8.328,0,0,1-.061-7.763h0l1.883.345.825,1.872a4.961,4.961,0,0,0,.047,3.34Z" transform="translate(0 -133.778)"/><path class="b" d="M269.613,208.176a8.31,8.31,0,0,1-2.964,8.036h0l-2.372-.121-.336-2.1a4.955,4.955,0,0,0,2.132-2.53h-4.445v-3.289h7.985Z" transform="translate(-253.132 -201.416)"/><path class="c" d="M43.036,314.157h0a8.316,8.316,0,0,1-12.527-2.543l2.694-2.205a4.944,4.944,0,0,0,7.125,2.531Z" transform="translate(-29.518 -299.361)"/><path class="d" d="M41.314,1.914l-2.693,2.2a4.944,4.944,0,0,0-7.288,2.589L28.624,4.49h0a8.315,8.315,0,0,1,12.69-2.576Z" transform="translate(-27.694)"/></svg>