<svg xmlns="http://www.w3.org/2000/svg" width="16.927" height="15.462" viewBox="0 0 16.927 15.462"><defs><style>.a{fill:#0077b5;}</style></defs><g transform="translate(0 -23.916)"><g transform="translate(0 23.916)"><path class="a" d="M.55,189.568h2.2a.55.55,0,0,0,.55-.55V179.4a.55.55,0,0,0-.55-.55H.55a.55.55,0,0,0-.55.55v9.618A.55.55,0,0,0,.55,189.568Z" transform="translate(0 -174.106)"/><path class="a" d="M.55,26.969h2.2a.55.55,0,0,0,.55-.55V24.466a.55.55,0,0,0-.55-.55H.55a.55.55,0,0,0-.55.55V26.42A.55.55,0,0,0,.55,26.969Z" transform="translate(0 -23.916)"/><path class="a" d="M192.084,171.042a3.346,3.346,0,0,0-1.368-1,4.953,4.953,0,0,0-2-.393,4.889,4.889,0,0,0-3.757,1.692c-.2.225-.353.175-.353-.128v-.733a.55.55,0,0,0-.55-.55h-1.966a.55.55,0,0,0-.55.55v9.618a.55.55,0,0,0,.55.55h2.2a.55.55,0,0,0,.55-.55V176.75a10.761,10.761,0,0,1,.252-2.865,2.366,2.366,0,0,1,.934-1.245,2.646,2.646,0,0,1,1.538-.47,1.963,1.963,0,0,1,1.145.329,1.832,1.832,0,0,1,.687.922,9.835,9.835,0,0,1,.211,2.613v4.061a.55.55,0,0,0,.55.55h2.2a.55.55,0,0,0,.55-.55v-5.447a10.317,10.317,0,0,0-.182-2.219A3.635,3.635,0,0,0,192.084,171.042Z" transform="translate(-175.985 -165.183)"/></g></g></svg>