<svg xmlns="http://www.w3.org/2000/svg" width="26.422" height="26.422" viewBox="0 0 26.422 26.422"><defs><style>.a{fill:#3fd4a2;}.b{fill:#d9f7ed;}</style></defs><g transform="translate(0 0)"><rect class="a" width="26.422" height="26.422" rx="5.548"/></g><g transform="translate(1.124 1.124)"><rect class="b" width="24.174" height="24.174" rx="4.475"/><g transform="translate(5.2 3.654)"><path class="a" d="M184.7,230.305h-8.657a2.561,2.561,0,0,1-2.558-2.558V216a2.561,2.561,0,0,1,2.558-2.558H184.7A2.561,2.561,0,0,1,187.258,216v11.75A2.561,2.561,0,0,1,184.7,230.305Zm-8.657-14.617a.31.31,0,0,0-.309.309v11.75a.31.31,0,0,0,.309.309H184.7a.31.31,0,0,0,.309-.309V216a.31.31,0,0,0-.309-.309Z" transform="translate(-173.485 -213.44)"/></g><g transform="translate(0 6.746)"><rect class="a" width="6.325" height="2.249"/><g transform="translate(0 4.216)"><rect class="a" width="6.325" height="2.249"/></g><g transform="translate(0 8.433)"><rect class="a" width="6.325" height="2.249"/></g></g><g transform="translate(17.849 6.746)"><rect class="a" width="6.325" height="2.249"/><g transform="translate(0 4.216)"><rect class="a" width="6.325" height="2.249"/></g><g transform="translate(0 8.433)"><rect class="a" width="6.325" height="2.249"/></g></g></g></svg>