<svg xmlns="http://www.w3.org/2000/svg" width="74.52" height="99.359" viewBox="0 0 74.52 99.359">
  <g id="Group_23" data-name="Group 23" transform="translate(-393.48 -333)">
    <path id="Icon_open-map-marker" data-name="Icon open-map-marker" d="M37.26,0A37.21,37.21,0,0,0,0,37.26c0,24.84,37.26,62.1,37.26,62.1S74.52,62.1,74.52,37.26A37.21,37.21,0,0,0,37.26,0Zm0,12.42a24.853,24.853,0,0,1,8.029,48.369A24.567,24.567,0,0,1,37.26,62.1a24.84,24.84,0,0,1,0-49.68Z" transform="translate(393.48 333)" fill="#efbb0f" opacity="0.499"/>
    <g id="noun_assigned_2013027" transform="translate(415 355)">
      <g id="Group_20" data-name="Group 20" transform="translate(5 1)">
        <g id="Group_13" data-name="Group 13">
          <path id="Path_3" data-name="Path 3" d="M24.652,14.473V3.68A2.683,2.683,0,0,0,21.972,1H7.68A2.683,2.683,0,0,0,5,3.68V25.118A2.683,2.683,0,0,0,7.68,27.8H21.972a2.646,2.646,0,0,0,1.281-.341,7.137,7.137,0,0,0,1.4-12.985ZM7.68,26.012a.894.894,0,0,1-.893-.893V3.68a.894.894,0,0,1,.893-.893H21.972a.894.894,0,0,1,.893.893V13.741a7.133,7.133,0,0,0-6.5,12.271Zm16.972-1.376a5.334,5.334,0,1,1,1.787-3.984A5.347,5.347,0,0,1,24.652,24.636Z" transform="translate(-5 -1)" fill="#041649"/>
        </g>
        <g id="Group_14" data-name="Group 14" transform="translate(2.68 3.573)">
          <path id="Path_4" data-name="Path 4" d="M21.4,6.787H8.893A.893.893,0,1,1,8.893,5H21.4a.893.893,0,0,1,0,1.787Z" transform="translate(-8 -5)" fill="#041649"/>
        </g>
        <g id="Group_15" data-name="Group 15" transform="translate(2.68 10.719)">
          <path id="Path_5" data-name="Path 5" d="M16.933,14.787H8.893a.893.893,0,1,1,0-1.787h8.039a.893.893,0,0,1,0,1.787Z" transform="translate(-8 -13)" fill="#041649"/>
        </g>
        <g id="Group_16" data-name="Group 16" transform="translate(2.68 17.865)">
          <path id="Path_6" data-name="Path 6" d="M12.466,22.787H8.893a.893.893,0,1,1,0-1.787h3.573a.893.893,0,0,1,0,1.787Z" transform="translate(-8 -21)" fill="#041649"/>
        </g>
        <g id="Group_17" data-name="Group 17" transform="translate(2.68 21.439)">
          <path id="Path_7" data-name="Path 7" d="M12.466,26.787H8.893a.893.893,0,1,1,0-1.787h3.573a.893.893,0,0,1,0,1.787Z" transform="translate(-8 -25)" fill="#041649"/>
        </g>
        <g id="Group_18" data-name="Group 18" transform="translate(2.68 7.146)">
          <path id="Path_8" data-name="Path 8" d="M21.4,10.787H8.893A.893.893,0,1,1,8.893,9H21.4a.893.893,0,0,1,0,1.787Z" transform="translate(-8 -9)" fill="#041649"/>
        </g>
        <g id="Group_19" data-name="Group 19" transform="translate(15.186 15.186)">
          <path id="Path_9" data-name="Path 9" d="M26.466,23.36H22V18.893a.893.893,0,1,1,1.787,0v2.68h2.68a.893.893,0,0,1,0,1.787Z" transform="translate(-22 -18)" fill="#041649"/>
        </g>
      </g>
    </g>
  </g>
</svg>
