<svg xmlns="http://www.w3.org/2000/svg" width="74.52" height="99.359" viewBox="0 0 74.52 99.359">
  <g id="Group_21" data-name="Group 21" transform="translate(-212.48 -333)">
    <g id="Group_12" data-name="Group 12">
      <path id="Icon_open-map-marker" data-name="Icon open-map-marker" d="M37.26,0A37.21,37.21,0,0,0,0,37.26c0,24.84,37.26,62.1,37.26,62.1S74.52,62.1,74.52,37.26A37.21,37.21,0,0,0,37.26,0Zm0,12.42a24.853,24.853,0,0,1,8.029,48.369A24.567,24.567,0,0,1,37.26,62.1a24.84,24.84,0,0,1,0-49.68Z" transform="translate(212.48 333)" fill="#0d7dd9" opacity="0.98"/>
      <path id="Icon_open-task" data-name="Icon open-task" d="M0,0V23.482H23.482V11.439l-3.355,3.355v5.334H3.355V3.355H15.4L18.752,0ZM23.482,0,13.418,10.064,10.064,6.709,6.709,10.064l6.709,6.709L26.836,3.355Z" transform="translate(237 357)" fill="#041649"/>
    </g>
  </g>
</svg>
