<svg xmlns="http://www.w3.org/2000/svg" width="74.52" height="99.359" viewBox="0 0 74.52 99.359">
  <g id="Group_24" data-name="Group 24" transform="translate(-120.48 -421)">
    <path id="Icon_open-map-marker" data-name="Icon open-map-marker" d="M37.26,0A37.21,37.21,0,0,0,0,37.26c0,24.84,37.26,62.1,37.26,62.1S74.52,62.1,74.52,37.26A37.21,37.21,0,0,0,37.26,0Zm0,12.42a24.853,24.853,0,0,1,8.029,48.369A24.567,24.567,0,0,1,37.26,62.1a24.84,24.84,0,0,1,0-49.68Z" transform="translate(120.48 421)" fill="#0d7dd9"/>
    <path id="Icon_awesome-building" data-name="Icon awesome-building" d="M24.96,27.479H23.815V1.374A1.374,1.374,0,0,0,22.441,0H3.206A1.374,1.374,0,0,0,1.832,1.374v26.1H.687A.687.687,0,0,0,0,28.166v1.145H25.647V28.166A.687.687,0,0,0,24.96,27.479ZM7.328,4.351a.687.687,0,0,1,.687-.687H10.3a.687.687,0,0,1,.687.687v2.29a.687.687,0,0,1-.687.687H8.015a.687.687,0,0,1-.687-.687Zm0,5.5a.687.687,0,0,1,.687-.687H10.3a.687.687,0,0,1,.687.687v2.29a.687.687,0,0,1-.687.687H8.015a.687.687,0,0,1-.687-.687ZM10.3,18.319H8.015a.687.687,0,0,1-.687-.687v-2.29a.687.687,0,0,1,.687-.687H10.3a.687.687,0,0,1,.687.687v2.29A.687.687,0,0,1,10.3,18.319Zm4.351,9.16H10.991V22.67a.687.687,0,0,1,.687-.687h2.29a.687.687,0,0,1,.687.687Zm3.664-9.847a.687.687,0,0,1-.687.687h-2.29a.687.687,0,0,1-.687-.687v-2.29a.687.687,0,0,1,.687-.687h2.29a.687.687,0,0,1,.687.687Zm0-5.5a.687.687,0,0,1-.687.687h-2.29a.687.687,0,0,1-.687-.687V9.847a.687.687,0,0,1,.687-.687h2.29a.687.687,0,0,1,.687.687Zm0-5.5a.687.687,0,0,1-.687.687h-2.29a.687.687,0,0,1-.687-.687V4.351a.687.687,0,0,1,.687-.687h2.29a.687.687,0,0,1,.687.687Z" transform="translate(145 443)" fill="#041649"/>
  </g>
</svg>
