<svg xmlns="http://www.w3.org/2000/svg" width="74.52" height="99.359" viewBox="0 0 74.52 99.359">
  <g id="Group_22" data-name="Group 22" transform="translate(-301.48 -333)">
    <path id="Icon_open-map-marker" data-name="Icon open-map-marker" d="M37.26,0A37.21,37.21,0,0,0,0,37.26c0,24.84,37.26,62.1,37.26,62.1S74.52,62.1,74.52,37.26A37.21,37.21,0,0,0,37.26,0Zm0,12.42a24.853,24.853,0,0,1,8.029,48.369A24.567,24.567,0,0,1,37.26,62.1a24.84,24.84,0,0,1,0-49.68Z" transform="translate(301.48 333)" fill="#ee0c2b" opacity="0.499"/>
    <path id="Icon_metro-cross" data-name="Icon metro-cross" d="M26.047,20.962h0L18.86,13.774l7.188-7.188h0a.742.742,0,0,0,0-1.047l-3.4-3.4a.742.742,0,0,0-1.047,0h0L14.417,9.332,7.23,2.144h0a.742.742,0,0,0-1.047,0l-3.4,3.4a.742.742,0,0,0,0,1.047h0l7.188,7.188L2.787,20.962h0a.742.742,0,0,0,0,1.047l3.4,3.4a.742.742,0,0,0,1.047,0h0l7.188-7.188L21.6,25.4h0a.742.742,0,0,0,1.047,0l3.4-3.4a.742.742,0,0,0,0-1.047Z" transform="translate(324.429 355.072)" fill="#041649"/>
  </g>
</svg>
